<svg width="295" height="77" fill="none" xmlns="http://www.w3.org/2000/svg"><path d="M100.298 57.385l-.02.02h-3.24v-.061c.429-.123.643-.416.643-.88v-.357l-.02-.256-.9-6.674-3.75 8.402a3.695 3.695 0 01-.798-.634 5.86 5.86 0 01-.583-.92l-3.332-6.848-1.002 6.715v.215c0 .082-.006.163-.02.245 0 .484.205.815.613.992v.061h-2.708v-.061c.463-.307.77-.93.92-1.87l.95-6.215.041-.297.041-.163v-.236c0-.354-.198-.616-.593-.787l2.954-.02c.041.252.106.46.194.623l3.18 6.491 2.84-6.347c.117-.198.188-.454.215-.767h2.913c-.313.11-.49.389-.531.838l.02.286 1.094 6.992c.048.45.133.763.256.94.102.191.31.382.623.573zm10.457-2.178l-1.023 1.943a8.14 8.14 0 01-2.892.552c-1.615 0-3.026-.464-4.232-1.39-1.199-.934-1.799-2.202-1.799-3.803v-.133c0-1.274.46-2.412 1.38-3.414.927-1.002 2.228-1.502 3.905-1.502.858 0 1.649.2 2.371.603a4.255 4.255 0 011.707 1.676c.388.695.583 1.506.583 2.433v.082h-7.677c0 .96.3 1.84.9 2.637.606.79 1.533 1.243 2.78 1.359.218 0 .392.014.521.04.266 0 .545-.023.838-.07.293-.055.607-.127.941-.215a5.336 5.336 0 001.656-.798h.041zm-2.178-4.19a1.81 1.81 0 00-.224-.9 2.027 2.027 0 00-.614-.685 2.872 2.872 0 00-.838-.429 3.087 3.087 0 00-.961-.143 3.1 3.1 0 00-1.819.572c-.538.382-.859.91-.961 1.585h5.417zm13.206 4.252c0 .443-.071.78-.214 1.012-.273.443-.832.817-1.676 1.124v-5.489c0-.974-.27-1.727-.808-2.259-.538-.531-1.254-.797-2.146-.797-.907 0-1.643.3-2.208.9-.62.654-.93 1.57-.93 2.749 0 1.09.364 2 1.093 2.73.702.701 1.554 1.052 2.556 1.052.368 0 .708-.051 1.022-.153.313-.11.599-.26.858-.45l-1.277 1.89c-.45.062-.883.093-1.298.093-1.575 0-2.801-.416-3.68-1.247-.941-.886-1.411-2.191-1.411-3.915 0-1.24.443-2.354 1.329-3.342.995-1.111 2.262-1.666 3.802-1.666 1.104 0 2.137.398 3.098 1.195v-2.453c0-.504-.215-.947-.644-1.329-.477-.422-1.077-.633-1.799-.633-.743 0-1.37.167-1.881.5-.382.287-.76.573-1.135.86l-1.451-1.595a934.38 934.38 0 012.238-.798c.723-.218 1.268-.327 1.636-.327 1.417 0 2.582.304 3.495.91.954.634 1.431 1.479 1.431 2.535v8.903zm12.348 2.269l-1.462-.133-.797-.378-.44-1.002c-.402.688-.865 1.135-1.39 1.34a4.743 4.743 0 01-1.686.296c-2.399 0-3.598-1.384-3.598-4.15v-4.334c0-.593-.273-1.04-.818-1.34v-.081c.525 0 .879.014 1.063.04.402 0 .736-.026 1.002-.08.266-.055.463-.127.593-.215h.041v5.611c0 1.983.78 2.974 2.34 2.974.661 0 1.234-.235 1.718-.705.49-.477.735-1.206.735-2.187v-3.598c0-.457-.054-.818-.163-1.084-.109-.265-.327-.49-.654-.674v-.082c.865 0 1.397.014 1.594.04.477-.04.832-.139 1.063-.295h.041v7.85c0 .463.021.797.062 1.001.034.327.119.559.255.695.123.157.29.29.501.399v.092zm10.599 1.891c-.136-.552-.323-1.009-.562-1.37a1.513 1.513 0 00-.981-.674h-8.095v-.041c.422-.164.633-.648.633-1.452v-6.695c0-.763-.211-1.216-.633-1.36v-.06h3.219v.06c-.422.123-.633.577-.633 1.36v7.114h3.853v-7.114c0-.763-.214-1.216-.644-1.36v-.06h3.302v.06c-.43.137-.644.59-.644 1.36v7.114h1.185v3.118zm11.213-1.891l-1.461-.133-.798-.378-.439-1.002c-.402.688-.865 1.135-1.39 1.34a4.748 4.748 0 01-1.687.296c-2.398 0-3.598-1.384-3.598-4.15v-4.334c0-.593-.272-1.04-.817-1.34v-.081c.524 0 .879.014 1.063.04.402 0 .736-.026 1.001-.08.266-.055.464-.127.593-.215h.041v5.611c0 1.983.78 2.974 2.341 2.974.661 0 1.233-.235 1.717-.705.491-.477.736-1.206.736-2.187v-3.598c0-.457-.055-.818-.164-1.084-.109-.265-.327-.49-.654-.674v-.082c.866 0 1.397.014 1.595.04.477-.04.831-.139 1.063-.295h.041v7.85c0 .463.02.797.061 1.001.034.327.119.559.256.695.122.157.289.29.5.399v.092zm10.569-.133h-3.455v-.061c.43-.143.644-.607.644-1.39v-3.302h-4.068v3.302c0 .783.212 1.247.634 1.39v.061h-3.363v-.061c.423-.143.634-.607.634-1.39v-6.777c0-.797-.211-1.278-.634-1.441v-.051h3.363v.05c-.259.103-.429.304-.511.604-.082.3-.123.698-.123 1.196v2.064h4.068v-2.218c0-.43-.037-.787-.112-1.073a.736.736 0 00-.532-.572v-.051h3.455v.05a.868.868 0 00-.501.502c-.095.272-.143.654-.143 1.144v6.573c0 .783.215 1.247.644 1.39v.061zm10.528-2.136l-1.083 2.003a9.02 9.02 0 01-2.617.389c-1.642 0-3.039-.454-4.191-1.36-1.144-.906-1.717-2.068-1.717-3.485 0-1.159.28-2.14.838-2.944a5.006 5.006 0 012.218-1.789c.914-.388 1.905-.582 2.975-.582.783 0 1.53.085 2.238.255v2.136h-.081c-.607-.66-1.452-.991-2.535-.991-.968 0-1.796.31-2.484.93-.688.62-1.033 1.468-1.033 2.545v.082c0 .525.11 1.008.328 1.451.224.436.555.849.991 1.237.859.763 1.85 1.145 2.974 1.145a5.01 5.01 0 001.615-.256 5.911 5.911 0 001.503-.766h.061zm10.15 2.136h-1.625c-.429 0-.787-.058-1.073-.174-.266-.088-.453-.204-.562-.347a5.471 5.471 0 01-.266-.338 16.81 16.81 0 01-.409-.572l-2.923-3.976 1.983-2.198c.531-.613.797-1.066.797-1.36 0-.272-.126-.473-.378-.602v-.082h3.189l-3.527 4.038 2.709 3.413.562.726c.171.245.382.494.634.746s.548.494.889.726zm-6.46 0h-3.475v-.082c.375-.238.596-.477.664-.715.069-.245.103-.784.103-1.615v-5.254c0-.286-.007-.521-.021-.705a3.246 3.246 0 00-.082-.532c-.081-.252-.303-.467-.664-.644v-.04l1.002-.021h.255c.273 0 .467-.014.583-.041a1.2 1.2 0 00.225-.02c.068-.02.146-.051.235-.092a.615.615 0 00.317-.205h.041v8.075c0 .477.047.835.143 1.073.081.273.306.518.674.736v.082zm16.774.133l-1.462-.133-.797-.378-.44-1.002c-.402.688-.865 1.135-1.39 1.34a4.748 4.748 0 01-1.687.296c-2.398 0-3.597-1.384-3.597-4.15v-4.334c0-.593-.273-1.04-.818-1.34v-.081c.525 0 .879.014 1.063.04.402 0 .736-.026 1.002-.08.265-.055.463-.127.592-.215h.041v5.611c0 1.983.78 2.974 2.341 2.974.661 0 1.233-.235 1.717-.705.491-.477.736-1.206.736-2.187v-3.598c0-.457-.054-.818-.163-1.084-.109-.265-.328-.49-.655-.674v-.082c.866 0 1.397.014 1.595.04.477-.04.831-.139 1.063-.295h.041v7.85c0 .463.02.797.061 1.001.034.327.119.559.256.695.122.157.289.29.501.399v.092zm7.972-12.071l-3.005 1.553 2.004-2.933 1.001 1.38zm3.312 12.07l-1.462-.132-.797-.378-.439-1.002c-.403.688-.866 1.135-1.391 1.34a4.739 4.739 0 01-1.686.296c-2.399 0-3.598-1.384-3.598-4.15v-4.334c0-.593-.273-1.04-.818-1.34v-.081c.525 0 .879.014 1.063.04.402 0 .736-.026 1.002-.08.266-.055.463-.127.593-.215h.041v5.611c0 1.983.78 2.974 2.34 2.974.661 0 1.234-.235 1.718-.705.49-.477.736-1.206.736-2.187v-3.598c0-.457-.055-.818-.164-1.084-.109-.265-.327-.49-.654-.674v-.082c.865 0 1.397.014 1.594.04.477-.04.832-.139 1.063-.295h.041v7.85c0 .463.021.797.062 1.001.034.327.119.559.255.695.123.157.29.29.501.399v.092zm16.446 1.892c-.136-.552-.323-1.009-.562-1.37a1.515 1.515 0 00-.981-.674h-8.096v-.041c.423-.164.634-.648.634-1.452v-6.695c0-.763-.211-1.216-.634-1.36v-.06h3.22v.06c-.422.123-.634.577-.634 1.36v7.114h3.854v-7.114c0-.763-.215-1.216-.644-1.36v-.06h3.301v.06c-.429.137-.643.59-.643 1.36v7.114h1.185v3.118zm10.876-4.222l-1.022 1.943c-.975.367-1.939.552-2.893.552-1.615 0-3.026-.464-4.232-1.39-1.199-.934-1.799-2.202-1.799-3.803v-.133c0-1.274.46-2.412 1.38-3.414.927-1.002 2.228-1.502 3.905-1.502.858 0 1.649.2 2.371.603a4.255 4.255 0 011.707 1.676c.389.695.583 1.506.583 2.433v.082h-7.677c0 .96.3 1.84.9 2.637.606.79 1.533 1.243 2.78 1.359.218 0 .392.014.521.04.266 0 .546-.023.839-.07.293-.055.606-.127.94-.215a5.336 5.336 0 001.656-.798h.041zm-2.177-4.19a1.8 1.8 0 00-.225-.9 2.016 2.016 0 00-.614-.685 2.872 2.872 0 00-.838-.429 3.087 3.087 0 00-.961-.143 3.1 3.1 0 00-1.819.572c-.538.382-.859.91-.961 1.585h5.418zm12.695 6.388h-3.455v-.061c.429-.143.644-.607.644-1.39v-3.302h-4.068v3.302c0 .783.211 1.247.633 1.39v.061h-3.363v-.061c.423-.143.634-.607.634-1.39v-6.777c0-.797-.211-1.278-.634-1.441v-.051h3.363v.05c-.259.103-.429.304-.511.604-.082.3-.122.698-.122 1.196v2.064h4.068v-2.218c0-.43-.038-.787-.113-1.073a.736.736 0 00-.531-.572v-.051h3.455v.05a.863.863 0 00-.501.502c-.096.272-.143.654-.143 1.144v6.573c0 .783.214 1.247.644 1.39v.061zm8.974-7.891a1.093 1.093 0 00-.327-.317c-.116-.075-.337-.16-.665-.255-.143 0-.408-.007-.797-.02a26.82 26.82 0 00-.766-.021c-.45 0-.675.211-.675.634v6.112c0 .416.058.75.174 1.002.095.245.31.47.644.674v.082h-3.516v-.082c.361-.184.586-.409.674-.674.068-.273.102-.593.102-.961v-6.153c0-.423-.225-.634-.674-.634-.232 0-.477.007-.736.02a272.8 272.8 0 01-.828.02c-.327.096-.549.181-.665.256a1.117 1.117 0 00-.327.317v-1.973l2.77.144h2.842l2.77-.144v1.973z" fill="#FD7400"/><path d="M265.374 52.458l-.021.572c-.109 1.336-.634 2.443-1.574 3.322-.94.873-2.058 1.309-3.353 1.309a5.427 5.427 0 01-1.666-.256l-1.093-1.717c.334.19.681.34 1.042.45.368.102.78.153 1.237.153.45 0 .855-.065 1.216-.194.368-.13.709-.324 1.023-.583.586-.484.93-1.23 1.032-2.238l.041-.644c0-.968-.252-1.792-.757-2.474-.592-.81-1.4-1.216-2.422-1.216-.906 0-1.625.276-2.157.828-.531.552-.797 1.148-.797 1.788v7.738c0 .79.041 1.319.123 1.584.081.273.313.518.695.736v.082h-3.517v-.082c.546-.3.818-.818.818-1.553V49.678c0-.927-.272-1.54-.818-1.84v-.082c.627 0 1.053.014 1.278.04.334 0 .62-.026.859-.08.238-.062.412-.134.521-.215h.041v1.482c.361-.484.876-.859 1.543-1.125a5.18 5.18 0 011.891-.357h.205c.436 0 .852.06 1.247.184.395.115.79.292 1.185.531.716.436 1.282 1.077 1.697 1.922.157.34.276.705.358 1.093.082.382.123.79.123 1.227z" fill="#FD7400"/><path d="M96.73 30.756c0 .651-.12 1.238-.361 1.76a3.951 3.951 0 01-1.025 1.375 7.083 7.083 0 01-3.038 1.64 13.456 13.456 0 01-3.352.446c-.184 0-.414-.012-.687-.037l-.675-.06-1.386-.096L85 32.782l.096.048c.78.394 1.54.7 2.279.916.74.217 1.447.326 2.122.326 1.27 0 2.319-.342 3.147-1.025.827-.683 1.241-1.479 1.241-2.387v-.193c0-.956-.37-1.672-1.109-2.146-.787-.498-1.744-.748-2.87-.748-.457 0-1.096.069-1.916.205v-2.025h.434c.136 0 .261.008.374.024l.65.048c.45 0 .869-.052 1.255-.156a5.007 5.007 0 001.133-.483c.691-.401 1.037-1.02 1.037-1.856 0-.78-.33-1.387-.989-1.82a3.905 3.905 0 00-2.194-.652c-1.182 0-2.424.422-3.725 1.266h-.049l1.013-2.652c.956-.362 2.001-.543 3.135-.543.964 0 1.852.141 2.664.422.812.274 1.47.696 1.977 1.266.506.563.76 1.27.76 2.122v.145a3 3 0 01-.712 1.977c-.506.627-1.266 1.097-2.278 1.41a6.774 6.774 0 012.941 1.315c.877.675 1.315 1.66 1.315 2.953v.217zm15.866 6.33l-.048.048c-1.455-1.005-2.881-1.507-4.28-1.507h-.193l-1.013-.012a682.3 682.3 0 00-2.037-.024c-.755 0-1.583-.004-2.484-.012h-.192c-1.391 0-2.818.502-4.28 1.507l-.049-.048 1.339-3.147 1.254-.543c.811-.9 1.503-3.07 2.073-6.51.346-2.106.519-3.573.519-4.4v-.241c0-.105-.008-.19-.025-.254l-.048-.687c0-.273-.024-.478-.072-.615-.064-.136-.197-.301-.398-.494a4.764 4.764 0 00-.422-.362 15.69 15.69 0 00-.591-.458l.049-.096c.072.032.172.068.301.108.137.032.293.06.47.085l.398-.049h7.897v.049c-.507.184-.82.514-.941.988-.112.474-.168 1.11-.168 1.905l.048 9.163c0 1.31.369 2.097 1.109 2.363h.446l1.338 3.243zm-5.437-3.533V21.304l-.518-.096-.567-.048h-1.338c-.322 0-.543.068-.663.205a1.165 1.165 0 00-.242.53c0 .9-.04 1.756-.12 2.568-.08.804-.193 1.644-.338 2.52-.08.498-.209 1.19-.385 2.073-.37 1.913-.913 3.396-1.628 4.45l5.799.047zm24.341-6.076c0 .94-.165 1.869-.494 2.785a8.51 8.51 0 01-1.785 2.87 8.79 8.79 0 01-2.833 2 9.836 9.836 0 01-1.784.628 7.683 7.683 0 01-1.845.217h-.156a11.36 11.36 0 01-1.917-.157 8.416 8.416 0 01-1.736-.495c-1.174-.45-2.178-1.077-3.014-1.88-.836-.804-1.471-1.688-1.905-2.653a9.764 9.764 0 01-.519-1.519 7.072 7.072 0 01-.168-1.555c.016-.008.032-.032.048-.072 0-.683.06-1.318.181-1.905.128-.595.317-1.17.566-1.724a8.071 8.071 0 011.953-2.737 8.61 8.61 0 012.834-1.748c.53-.2 1.081-.358 1.651-.47a8.61 8.61 0 011.76-.18h.338c1.479 0 2.853.304 4.123.915a8.086 8.086 0 013.34 2.87c.426.65.759 1.35 1 2.097a7.43 7.43 0 01.362 2.315v.398zm-2.797.193c0-.306-.016-.583-.048-.832-.177-1.744-.836-3.227-1.977-4.449-1.085-1.149-2.468-1.724-4.148-1.724h-.193c-.924 0-1.768.17-2.531.507a5.88 5.88 0 00-1.99 1.422c-1.069 1.142-1.603 2.669-1.603 4.582v.35c0 .45.052.891.157 1.325.104.426.257.864.458 1.315a7.253 7.253 0 001.507 2.23 6.178 6.178 0 002.146 1.422c.619.25 1.262.374 1.929.374h.301a.665.665 0 01.145-.024 5.61 5.61 0 001.917-.313 5.983 5.983 0 001.615-.917 5.925 5.925 0 001.893-2.748 7.791 7.791 0 00.422-2.52zm16.155-3.894c0 1.286-.478 2.307-1.435 3.062-1.004.796-2.041 1.262-3.11 1.399-.233 0-.555.036-.965.108-.345 0-.659-.036-.94-.108a4.789 4.789 0 01-.832-.338c1.109 0 2.122-.35 3.038-1.049.925-.7 1.387-1.6 1.387-2.7v-.06c0-1.03-.322-1.781-.965-2.255-.643-.482-1.491-.724-2.544-.724a9.96 9.96 0 00-1.711.145v11.755c0 .61.096 1.105.289 1.483.193.377.518.707.976.988l.049.097h-4.919v-.097c.747-.313 1.121-1.105 1.121-2.375v-11.14c0-1.398-.374-2.262-1.121-2.592v-.048h5.98c1.583 0 2.925.346 4.026 1.037.539.346.953.792 1.242 1.338.289.539.434 1.162.434 1.869v.205zm18.735 3.701c0 .94-.165 1.869-.494 2.785a8.51 8.51 0 01-1.785 2.87 8.79 8.79 0 01-2.833 2 9.81 9.81 0 01-1.784.628 7.683 7.683 0 01-1.845.217h-.156a11.36 11.36 0 01-1.917-.157 8.416 8.416 0 01-1.736-.495c-1.174-.45-2.178-1.077-3.014-1.88-.836-.804-1.471-1.688-1.905-2.653a9.653 9.653 0 01-.518-1.519 7.012 7.012 0 01-.169-1.555c.016-.008.032-.032.048-.072 0-.683.06-1.318.181-1.905.128-.595.317-1.17.566-1.724a8.088 8.088 0 011.954-2.737 8.596 8.596 0 012.833-1.748c.53-.2 1.081-.358 1.651-.47a8.613 8.613 0 011.761-.18h.337c1.479 0 2.853.304 4.123.915a8.086 8.086 0 013.34 2.87c.426.65.759 1.35 1 2.097.242.74.362 1.512.362 2.315v.398zm-2.797.193c0-.306-.016-.583-.048-.832-.177-1.744-.836-3.227-1.977-4.449-1.085-1.149-2.468-1.724-4.148-1.724h-.192c-.925 0-1.769.17-2.532.507a5.866 5.866 0 00-1.989 1.422c-1.069 1.142-1.604 2.669-1.604 4.582v.35c0 .45.052.891.157 1.325.104.426.257.864.458 1.315a7.253 7.253 0 001.507 2.23 6.178 6.178 0 002.146 1.422c.619.25 1.262.374 1.929.374h.301a.674.674 0 01.145-.024 5.61 5.61 0 001.917-.313 5.968 5.968 0 001.615-.917 5.925 5.925 0 001.893-2.748 7.791 7.791 0 00.422-2.52zm16.903 2.7l-.025.434c-.144 1.536-.843 2.717-2.097 3.545-1.246.82-2.845 1.23-4.799 1.23h-5.702c.434-.338.727-.643.88-.917.153-.28.229-.84.229-1.675V21.87c0-1.278-.37-2.126-1.109-2.544h6.076c1.391 0 2.564.298 3.521.892.956.595 1.434 1.451 1.434 2.568v.145c0 1.503-.812 2.548-2.435 3.135a5.58 5.58 0 011.893.723c.554.33.992.7 1.314 1.109.153.2.281.414.386.639.112.217.205.466.277.747.104.402.157.764.157 1.085zm-4.232-7.04v-.048c0-.852-.309-1.495-.928-1.93a3.291 3.291 0 00-1.857-.542h-.253l-1.676.193v4.87h.916c1.021 0 1.909-.224 2.665-.675.755-.458 1.133-1.08 1.133-1.868zm1.507 7.426c0-1.06-.442-1.909-1.326-2.544a5.026 5.026 0 00-2.821-.831h-.241l-1.833.096v6.125l2.146.192.518.025c.989 0 1.805-.254 2.448-.76.739-.595 1.109-1.362 1.109-2.303zm16.842-.386v.17c0 .064-.008.152-.024.265-.145 1.535-.844 2.716-2.098 3.544-1.253.82-2.849 1.23-4.786 1.23h-5.702c.45-.362.747-.68.892-.953.144-.273.217-.82.217-1.64V21.92c0-1.366-.37-2.214-1.109-2.544v-.048h4.738v.048c-.74.314-1.11 1.162-1.11 2.544v.446l.049 3.509h2.242c1.286 0 2.174.064 2.664.193a5.668 5.668 0 011.869.71c.563.338 1.013.712 1.35 1.122.282.378.503.84.664 1.386.096.378.144.74.144 1.085zm-2.712.386c0-1.053-.446-1.9-1.339-2.544a4.968 4.968 0 00-2.809-.831h-.253l-1.82.096v6.125l2.146.192.518.025c.981 0 1.796-.254 2.447-.76.74-.595 1.11-1.362 1.11-2.303zm16.143 1.58l-1.11 3.243h-10.271v-.097c.739-.265 1.109-1.057 1.109-2.375V22.27c0-.82-.056-1.459-.169-1.917-.104-.458-.418-.784-.94-.977v-.048h7.908c.169 0 .298.016.386.048.394-.064.651-.128.772-.192h.048v2.88h-.048c-.587-.634-1.507-.951-2.761-.951h-1.616l-.566.048-.519.096v4.618h2.327c.274 0 .47.016.591.048.563-.064.932-.137 1.109-.217h.073v2.64h-.073c-.289-.482-.98-.723-2.073-.723h-1.954v5.883l3.388.29h.217c.065 0 .157.015.277.048.7 0 1.371-.129 2.014-.386a6.647 6.647 0 001.832-1.121h.049zm22.243 0l-1.278 2.893c-.78.297-1.463.494-2.05.59-.586.105-1.189.157-1.808.157h-.241c-1.182 0-2.287-.164-3.315-.494a9.947 9.947 0 01-2.87-1.483 7.067 7.067 0 01-2.073-2.41c-.523-1.014-.784-2.147-.784-3.4l-.024-.64c0-1.495.305-2.869.916-4.123a7.518 7.518 0 013.026-3.34c1.358-.803 2.95-1.205 4.774-1.205 1.326 0 2.809.233 4.449.7v2.784c-1.495-.94-2.978-1.41-4.449-1.41h-.289c-.868 0-1.644.157-2.327.47a4.98 4.98 0 00-1.772 1.362 6.59 6.59 0 00-1.145 1.977 6.773 6.773 0 00-.386 2.315c0 1.158.269 2.287.808 3.388a6.243 6.243 0 002.254 2.544c.956.627 2.082.94 3.376.94h.096c.78 0 1.588-.136 2.423-.41.836-.273 1.708-.675 2.617-1.205h.072zm12.333 0l-1.109 3.243h-10.272v-.097c.74-.265 1.109-1.057 1.109-2.375V22.27c0-.82-.056-1.459-.168-1.917-.105-.458-.418-.784-.941-.977v-.048h7.909c.169 0 .297.016.386.048.394-.064.651-.128.771-.192h.049v2.88h-.049c-.586-.634-1.507-.951-2.76-.951h-1.616l-.567.048-.518.096v4.618h2.327c.273 0 .47.016.591.048.562-.064.932-.137 1.109-.217h.072v2.64h-.072c-.29-.482-.981-.723-2.074-.723h-1.953v5.883l3.388.29h.217c.064 0 .157.015.277.048a5.37 5.37 0 002.013-.386 6.667 6.667 0 001.833-1.121h.048zm22.738 3.194l-.048.049h-4.775v-.097c.643-.217.965-.711.965-1.483v-.627l-.048-.385-1.302-11.26-5.534 14.153c-.498-.354-.884-.72-1.157-1.097-.306-.378-.595-.888-.868-1.531l-4.895-11.526-1.483 11.333c0 .338-.016.583-.048.735 0 .402.076.748.229 1.037.16.281.39.498.687.651v.097h-4.003v-.097c.692-.538 1.146-1.587 1.363-3.146l1.386-10.465.072-.494.049-.29.024-.373c0-.603-.29-1.05-.868-1.339v-.048h4.352c.064.434.153.788.265 1.061l4.69 10.935 4.208-10.682c.144-.33.241-.767.289-1.314h4.268v.048c-.241.089-.43.25-.567.483-.129.225-.193.526-.193.904.032.088.048.253.048.494l1.604 11.755c.08.731.205 1.258.374 1.58.144.329.45.642.916.94zm14.226-5.16v.17c0 .064-.008.152-.024.265-.145 1.535-.844 2.716-2.098 3.544-1.254.82-2.849 1.23-4.786 1.23h-5.703c.45-.362.748-.68.892-.953.145-.273.217-.82.217-1.64V21.92c0-1.366-.369-2.214-1.109-2.544v-.048h4.738v.048c-.739.314-1.109 1.162-1.109 2.544v.446l.048 3.509h2.243c1.286 0 2.174.064 2.664.193a5.685 5.685 0 011.869.71c.562.338 1.013.712 1.35 1.122.281.378.502.84.663 1.386.097.378.145.74.145 1.085zm-2.713.386c0-1.053-.446-1.9-1.338-2.544a4.968 4.968 0 00-2.809-.831h-.253l-1.821.096v6.125l2.146.192.519.025c.98 0 1.796-.254 2.447-.76.74-.595 1.109-1.362 1.109-2.303zm20.688 4.823h-4.388v-.097c.257-.185.47-.365.639-.542.177-.177.309-.362.398-.555.177-.353.265-.952.265-1.796v-9.802l-8.837 11.236c-.482.58-.944 1.045-1.386 1.399-.41.362-1.033.671-1.869.928l.048-14.033c0-.892-.096-1.519-.289-1.88-.185-.362-.527-.716-1.025-1.062v-.048h4.352v.048c-.578.274-.944.655-1.097 1.146-.145.482-.217 1.049-.217 1.7v9.657l9.018-11.393c.506-.603.76-.989.76-1.158h3.628v.048c-.458.298-.795.611-1.012.94-.193.354-.29.973-.29 1.857V32.59c0 .812.089 1.426.266 1.844.176.418.522.768 1.036 1.05v.096z" fill="#89316E"/><path fill="url(#paint0_linear)" d="M0 0h77v77H0z"/><path d="M14.303 24.714c1.002-1.887-.306-2.07-.786-3.221-.741 1.932-.48 2.393.786 3.22zm4.36-1.933c-.785-1.932-1.962-.644-3.27-1.012 1.22 1.932 2.747 2.255 3.27 1.012zm-1.09 4.095c.829-.828 1.003-1.84.306-3.175-1.134 1.335-1.396 2.393-.306 3.175zm1.526-6.073c.567-3.681-1.7-2.393-2.53-3.635-.305 2.668.48 3.957 2.53 3.635zm1.221-3.221c.219-2.117-1.09-2.163-2.005-3.037-.175 2.163.567 3.037 2.006 3.037zm-7.937 24.616c-.131-1.104-.785-1.61-1.92-1.564.35 1.242.96 1.794 1.92 1.564zm1.831-14.033c-.829-1.979-2.18-1.335-3.62-1.013 1.003 1.657 2.225 2.255 3.62 1.013zm8.504-13.528c-1.526.46-2.398 1.242-1.788 2.669 2.137.184 1.047-1.105 1.788-2.669zM9.635 36.815c-.13 1.887.523 2.853 2.05 2.76.218-2.254-1.178-2.162-2.05-2.76zm1.832-2.807c.262-2.576-1.264-2.3-1.788-3.129-.305 2.163.218 2.67 1.788 3.13zm13.695-18.957c.785-2.209-.436-1.886-1.483-2.99-.305 2.208.262 3.128 1.483 2.99zm5.495 1.426c.96.92 1.483-.322 2.18-.46-.784-.736-1.744-.46-2.18.46zm.48-1.656c1.046.414 1.831.184 2.311-.736-.916-.644-1.7-.322-2.311.736zm-1.745 8.604c1.395-.598.654-1.012.916-2.162-1.004.184-1.309.92-.916 2.162zm2.443.46c-1.396-.368-1.963 0-1.788 1.105.872.322 1.395-.414 1.788-1.105zm1.307-.689c-.741-1.105-1.308-.184-1.919-.276.436.782 1.09.92 1.92.276zM29.26 10.818c.306-.46.044-1.426.437-1.932-1.876.184-2.225 1.288-1.876 2.806.262-.414 1.134-.414 1.44-.874zM10.944 35.71c.13-2.07-1.221-1.472-2.006-2.116-.131 1.933.741 2.347 2.006 2.117zm16.398-23.696c.393-.874.044-1.564-1.09-2.07-.175 1.058.043 1.84 1.09 2.07zm2.617 4.187c.829-.552 1.09-1.15.61-1.794-.872.414-1.002 1.058-.61 1.794zm-7.239.553c.872.414 1.788.966 2.18-.553-.48-.736-1.22-.506-2.18.553zm7.762 3.083c0 .828.611 1.196 1.265 1.242.48-.046.872-.276 1.134-.736.305-.967.044-1.565-.48-1.887-.349-.184-.523.322-.828.23-.742-.184-1.003.184-1.09 1.15zm-5.233 34.417c-.655.046-1.047.644-1.003 1.886.087 1.518.566 2.117 1.744 2.255.872.092 1.919-.46 2.311-1.979.044-.46 0-.828-.087-1.15.218-.23.306-.506.218-.828-.349-.093-.567 0-.741.276-.305-.138-.698-.184-1.265-.092-.392.138-.654-.368-1.177-.368zm3.925.69c-.393 1.058 0 1.84 1.265 2.3.218-1.288-.088-2.162-1.265-2.3zm.436-3.451c.044-.736-.305-1.197-1.308-1.197.218.783.654 1.197 1.308 1.197zm-1.526 1.748c1.352-.322.436-1.242.261-1.886-.261.644-1.177.598-.261 1.886zm4.361.875c-.61-.507-1.134-.415-1.614.46.916.323 1.483.185 1.614-.46zm-5.932-1.611c-.043.736.61 1.472 1.221 1.104.044-1.058-.741-.92-1.22-1.104zm-6.716-7.408c-.567.644-.61 1.288-.088 2.025.655-.69.698-1.38.088-2.025zm.916 3.543c-.48-1.012-1.047-1.334-1.744-.69-.131 1.242.828.736 1.744.69zm-6.062-3.45c-.567 1.15-.261 2.024.785 2.484.524-1.104-.087-1.472-.785-2.485zm18.448 9.892c-.436.184-.523.69-.305 1.518.785-.598.785-1.058.305-1.518zM8.763 47.398c.044 0 .088 0 .088-.046-.175.322-.262.828-.262 1.472.087 1.519.567 2.117 1.744 2.255.873.092 1.92-.46 2.312-1.979.13-1.334-.393-2.07-1.875-1.794-.393.138-.655-.368-1.134-.414.261-.23.48-.553.61-.92-.916-.277-1.483.091-1.483 1.426zm4.884 2.852c-.828-.045-1.133.829-.96 2.67 1.135-.645 1.44-1.52.96-2.67zm9.508 4.464c.567-.69.567-1.289-.087-1.749-1.134.736-.567 1.15.087 1.749zm-5.059-7.224c.654.092 1.003-.46 1.047-1.38-.873.23-1.178.69-1.047 1.38zm-8.242-2.163c-.218-.966-1.003-1.288-2.268-.966.785 1.288.567 1.61 2.268.966zm.522-1.84c.262-1.197-.523-1.795-2.006-1.979.262 1.242.305 2.3 2.006 1.979zm8.156 12.239c1.047-.184 1.745-.782 2.006-1.886-1.352-.23-1.962.46-2.006 1.886zm-3.619-4.601c1.177.644 1.962.46 2.355-.598-.698-.645-1.483-.507-2.355.598zm6.977 5.889c.786-.598 1.004-1.288.568-1.978-1.178-.092-1.352.552-.567 1.978zm-4.36-2.3c.916-1.519 1.046-2.623.218-3.221-1.44.782-1.309 1.932-.218 3.22zm47.144-11.227c1.701.276 1.745-.736 2.007-1.979-1.44.23-2.268.828-2.007 1.979zm-10.51-26.135c.567-1.427-.262-2.209-1.788-2.669.698 1.518-.392 2.807 1.788 2.669zm-2.791-5.292c-1.047 1.105-2.268.782-1.483 2.991 1.22.138 1.788-.782 1.483-2.99zm5.364 2.439c-.916.92-2.224.92-2.006 3.037 1.44.046 2.18-.829 2.006-3.037zm-6.585 1.656c.436 1.519 1.352.967 2.18.553-.959-1.013-1.7-1.243-2.18-.553zm5.8 4.648c2.05.322 2.835-.967 2.53-3.635-.829 1.242-3.097 0-2.53 3.635zm1.526 6.073c1.09-.782.829-1.886-.305-3.175-.698 1.335-.523 2.393.305 3.175zM45.093 16.201c.392-.782.261-1.38-.61-1.794-.48.69-.219 1.288.61 1.794zm.567 7.224c.393-1.242.087-1.932-.916-2.162.262 1.104-.48 1.518.916 2.162zm3.183-13.527c-1.134.506-1.483 1.196-1.09 2.07 1.003-.184 1.22-.966 1.09-2.07zm-1.613 1.84c.349-1.518 0-2.668-1.875-2.806.392.506.087 1.472.436 1.932.305.414 1.22.414 1.439.874zm16.354 22.27c1.57-.46 2.093-.966 1.788-3.129-.523.829-2.05.553-1.788 3.13zm-2.18 16.242c-.48 1.15-.175 2.025.96 2.67.174-1.841-.132-2.715-.96-2.67zm-5.016-27.469c.523 1.242 2.05.92 3.271-1.012-1.308.414-2.486-.874-3.27 1.012zm9.028 14.034c-.872.598-2.267.552-2.05 2.76 1.527.093 2.225-.92 2.05-2.76zm2.05 7.546c-1.265-.322-2.05 0-2.312.966 1.745.644 1.527.322 2.312-.966zm-1.178 3.037c0-1.335-.61-1.703-1.526-1.38.305.69.785 1.196 1.526 1.38zm-3.619-5.2c.96.23 1.57-.322 1.919-1.564-1.134-.046-1.832.46-1.92 1.564zm1.439-6.488c1.264.23 2.136-.183 2.006-2.116-.785.644-2.137.092-2.007 2.117zm-3.272-7.545c1.396 1.288 2.617.644 3.62-1.013-1.395-.322-2.79-.966-3.62 1.013zm-26.341-15.23c.654-.23 1.003-.69.785-1.565-.262-.598-.742-.69-1.134-.506-.61 0-.873.368-.873 1.012.088.783.611 1.197 1.222 1.059zm8.722 10.951c.436.69.916 1.426 1.788 1.104.131-1.104-.436-1.519-1.788-1.104zm18.317-2.393c-.48 1.15-1.788 1.334-.785 3.22 1.265-.828 1.527-1.288.785-3.22zM36.108 7.69c-1.003.137-1.483.735-1.308 1.794 1.483.092 1.003-1.15 1.308-1.795zm4.1 2.622c-.916-1.196-4.012-3.543-4.1-.46-.087 3.129 2.748.322 4.1.46zm-.262 6.902c.35-.644-.087-1.104-1.352-1.335.175.737.61 1.61 1.352 1.335zm1.57-2.945c0-.644-.218-1.058-.872-1.012-.392-.184-.872-.092-1.134.506-.218.874.131 1.334.785 1.564.654.092 1.178-.322 1.221-1.058zm-3.402-.874c1.134.552 1.832-.782 2.312-1.887-1.614-.092-2.53.46-2.312 1.887z" fill="#fff"/><path d="M37.416 12.842c.567-.552.35-1.196-.13-1.518-.524.276-.655 1.058.13 1.518zm-2.266 9.249c.174-.966-.437-1.702-1.527-2.255-.174 1.289.305 2.071 1.527 2.255zm8.722.829c-.655.092-1.222-.83-1.92.276.83.645 1.44.506 1.92-.276zm-11.078-9.94c.873-2.622-1.395-2.3-2.05-3.45-.174 2.3.393 3.635 2.05 3.45zm-.001-3.45c.654-.414.218-1.013 0-1.979-.48.644-.872 1.242 0 1.979zm1.134 6.81c.044 1.288.48 2.024 1.309 2.162.087-.92-.35-1.656-1.309-2.162zm10.468.137c-.437-.92-1.396-1.242-2.181-.46.698.184 1.221 1.38 2.18.46zm-.873 2.209c-.349.092-.523-.414-.828-.23-.524.322-.785.92-.48 1.887.262.46.61.69 1.134.736.654-.046 1.265-.414 1.265-1.242-.131-.967-.393-1.335-1.09-1.15zm-1.221-5.706c1.614.185 2.18-1.15 2.05-3.45-.698 1.15-2.966.828-2.05 3.45zm1.614 1.841c-.61-1.104-1.352-1.38-2.312-.736.437.92 1.222 1.15 2.312.736zm-5.845 5.384c-.043-.967-.697-1.335-1.656-1.289.305.966.828 1.427 1.657 1.289zM42.301 9.53c.829-.737.436-1.335 0-1.979-.262.966-.698 1.565 0 1.979zm21.545 41.549c1.134.23 1.701-.138 2.355-.967.524-1.242.48-2.346-.218-2.76-.567-.414-1.133-.046-1.657-.092-.48 0-1.09-.368-1.483.046-.567.552-.61 1.012-.523 1.932.044 1.059.567 1.565 1.526 1.84zM39.684 17.904c-1.177-.736-1.352.138-2.006.552 1.047.736 1.832.46 2.006-.552zm2.094-6.304c.175-1.058-.305-1.656-1.308-1.794.305.644-.175 1.886 1.308 1.794zm-.348 18.958c.697.598 1.308.645 1.83.092-.566-.737-1.177-.783-1.83-.092zM23.287 49.422c-.393-1.288-1.178-1.748-2.443-1.15.829.368.305 1.702 2.443 1.15zM55.08 26.554c.349-.874.044-1.472-.741-1.84-.131.736-.044 1.426.74 1.84zm1.134 8.374c-.35 1.657.043 2.347.959 2.439.829-.828.349-1.656-.96-2.439zm-1.832-2.07c-.349 1.104 0 1.886 1.221 2.255.044-1.335-.392-2.025-1.22-2.255zm5.975 1.656c.262 1.105.916 1.795 2.006 1.979 0-1.61-.61-2.347-2.006-1.979zM54.338 48.64c.916.046 1.92.552 1.745-.69-.698-.644-1.265-.322-1.745.69zm6.804-9.57c-.698-.46-1.352-.323-1.963.368.742.553 1.396.507 1.963-.368zm-1.483 8.604c1.047-.46 1.352-1.288.785-2.485-.742 1.013-1.352 1.38-.785 2.485zm-8.416-8.236c-.044-.69.654-1.979-.872-2.347-.873.782-.393 1.564.872 2.347zm-8.287-12.24c.087 1.105-.873 1.703.74 2.577 1.091-1.104.437-2.07-.74-2.577zm6.89 12.148c0-.737-.392-.829-.785-1.105-.218.46.087 1.105.785 1.105zm-4.841-5.936c-.698 1.472.044 2.209 1.483 2.623.087-1.84-.392-2.715-1.483-2.623zm.35-1.104c.392.783 1.09.69 2.006-.138-1.134-.369-1.876-.369-2.006.138zm2.79.23c1.265.276 2.006.046 2.093-.875-.828-.69-1.526-.322-2.093.875zm2.268-4.049c.218-.828.131-1.703-.61-1.979-.218-.092-.436.23-.698.184-.35 0-.436-.184-.698-.046-.698.322-.785.874-.654 1.38.174.737.48 1.151 1.134 1.335.567.184 1.395-.322 1.526-.874zm-9.027 6.579c1.177-1.196 1.613-2.208.916-2.944-1.614.092-1.483 1.38-.916 2.944zm-.393 2.485c-.698-.69-1.178-.276-1.483.874.872 0 1.483-.23 1.483-.874zm1.484 4.187c.566-.322.697-.828.436-1.472-.567.276-.829.69-.436 1.472zm-.481.138c.087-.874-.349-1.242-1.44-1.012.306.782.742 1.196 1.44 1.012zm-2.312-5.429c.829.552 1.527.184 2.094-.828-1.047-.322-1.876-.23-2.094.828zm.088-2.899c1.134-.736 1.134-1.702.392-2.807-.48 1.289-1.003 1.979-.392 2.807zm15.221 2.162c-1.352-.736-1.134.047-1.614.415.567.828 1.09.506 1.614-.414zm-8.025 17.531c.872-1.288 0-1.242-.262-1.886-.131.644-1.047 1.564.262 1.886zm-1.527-1.748c.654 0 1.09-.368 1.309-1.197-.96 0-1.352.415-1.309 1.197zm7.719 5.521c.786-1.38.612-2.07-.566-1.978-.436.69-.218 1.334.567 1.978zm-1.177-4.094c-.654.505-.654 1.103-.087 1.748.654-.553 1.221-.967.087-1.749zm-3.446-.415c-.48.23-1.264.092-1.22 1.104.566.368 1.264-.368 1.22-1.104zm-1.919 1.979c-.13.598.175.966.916 1.15-.043-.92-.305-1.288-.916-1.15zm7.895-.599c.218 1.105.916 1.657 2.006 1.887-.044-1.472-.654-2.163-2.006-1.887zm-11.907.231c.175.645.742.829 1.614.46-.48-.92-1.003-1.013-1.614-.46zm1.222 2.576c.218-.828.087-1.334-.305-1.518-.524.414-.48.92.305 1.518zm.785.552c1.264-.46 1.657-1.242 1.264-2.3-1.177.138-1.482 1.012-1.264 2.3zm9.071-6.027c.48 0 .61-.414.436-1.289-.872.507-.96.92-.436 1.289zm.088-3.865c-.611-.552-.262-1.933-1.876-1.657-.262 1.335.61 1.703 1.876 1.657zm1.483-2.255c-.61.644-.567 1.288.087 2.025.523-.69.48-1.38-.087-2.025zm-3.489 4.325c2.18.552 1.657-.782 2.442-1.15-1.265-.598-2.05-.138-2.442 1.15zm-.436-3.542c-.088-.69-.568-1.013-1.222-.829l-.785-.138c-.567.23-.741.69-.523 1.426.218.599.61 1.013 1.221 1.013.698.138 1.352-.552 1.308-1.473zm5.974 5.567c-.872.598-.698 1.748.218 3.22 1.09-1.242 1.221-2.392-.218-3.22zm-.349-3.957c.174-.69-.175-1.15-1.047-1.38.044.966.35 1.472 1.047 1.38zm3.185 3.635c-.873-1.105-1.658-1.243-2.356-.598.393 1.058 1.178 1.242 2.355.598zm-15.265-2.531c.654-.828-.044-1.38-.524-2.07-.697 1.242-.436 1.84.524 2.07zm2.573.645c.654.322 1.396.23 2.137-.368-1.09-.553-1.831-.507-2.137.368zm-.001-3.498c.61-.414.872-.598.524-1.564-.785.506-.916 1.012-.524 1.564zm6.28-8.006c.088-.782-.174-1.15-.785-1.15-.261.736 0 1.104.785 1.15zm-29.045-.644c-1.483.368-.829 1.61-.872 2.347 1.264-.783 1.744-1.565.872-2.347zm-5.234-1.979c1.221-.322 1.57-1.104 1.221-2.254-.828.23-1.264.92-1.22 2.255zm-6.76 1.381c1.09-.184 1.745-.92 2.007-1.979-1.396-.368-2.007.368-2.007 1.979zm7.371-.783c.523.92 1.046 1.243 1.613.415-.48-.368-.261-1.197-1.613-.414zm5.931 2.531c-.392.23-.741.368-.785 1.105.698 0 1.003-.645.785-1.105zm-4.667-.506c.785-.046 1.047-.414.785-1.15-.61-.046-.872.322-.785 1.15zm-.131-8.236c-.436.874-.305 1.61.437 2.209.305-1.105.174-1.84-.437-2.209zm5.366-2.853c-.262-.092-.35.046-.698.046-.262.046-.436-.276-.698-.184-.698.276-.829 1.15-.61 1.979.13.552.959 1.058 1.482.92.655-.23.96-.644 1.134-1.334.218-.553.088-1.105-.61-1.427zm-3.272-2.484c-.567.138-1.003.414-1.178 1.288.873-.092 1.178-.598 1.178-1.288zm-2.791 2.714c.567.874 1.308.966 2.224.092-.741-.966-1.526-1.058-2.224-.092zm-.523-.322c.785-.414.828-1.104.741-1.84-.785.368-1.09.966-.741 1.84zm5.757 18.359l-.786.138c-.61-.184-1.134.092-1.22.828-.044.92.61 1.565 1.308 1.473.61-.046 1.003-.414 1.22-1.013.219-.69.044-1.196-.523-1.426zm-4.798 5.015c-.174.875-.043 1.289.436 1.289.524-.368.436-.782-.436-1.289zm6.717-.689c-.35-.875-1.09-.921-2.137-.368.741.552 1.439.644 2.137.368zm-9.77-11.872c.96-.046 1.352-.782.96-2.439-1.309.783-1.789 1.61-.96 2.439zm5.278 8.328c-1.614-.23-1.265 1.105-1.876 1.657 1.265.046 2.137-.322 1.876-1.657zm-7.284-6.257c-.61-.69-1.264-.829-1.962-.368.567.875 1.22.92 1.962.368zm11.208 4.785c-.348.966-.043 1.15.524 1.564.393-.598.262-1.104-.523-1.564zM14.476 32.444c-.174 1.748 1.178 2.438 2.18 2.3 1.091-.23 1.658-.736 1.527-1.932-.174-2.807-1.482-1.38-2.137-1.288-.523.276-1.22-.369-1.57.92zM30.7 46.57c-.48.644-1.177 1.242-.523 2.07.96-.276 1.221-.874.523-2.07zm22.723-14.862c.741-.599.872-1.38.436-2.209-.567.368-.741 1.104-.436 2.209zm-18.536-6.442c-.567 1.196-.392 1.978.698 2.3.218-1.012-.087-1.748-.698-2.3zM28.17 24.3c-.261-.967-1.003-1.15-2.05-1.013.524 1.105 1.222 1.38 2.05 1.013zm11.296 3.267c1.09-.323 1.265-1.15.698-2.301-.61.552-.916 1.288-.698 2.3zm-6.149 18.681c.96.046 1.614-.23 1.614-1.289-.611-.23-1.134.23-1.614 1.288zm2.05-1.151c-.392.46-.261.92.393 1.564.392-1.15-.131-1.15-.393-1.564zm19.189-18.221c-.697-.966-1.439-.874-2.224.092.916.875 1.614.782 2.224-.092zm-2.79-2.714c0 .69.305 1.196 1.177 1.288-.174-.92-.61-1.15-1.177-1.288zm-14.524 1.38c1.222-.184 1.701-.966 1.527-2.255-1.09.553-1.701 1.289-1.527 2.255zm-.959 16.978c.523-1.564.654-2.852-.916-2.944-.698.736-.262 1.748.916 2.944zM46.88 24.3c.786.368 1.484.092 2.05-1.013-1.046-.184-1.788.046-2.05 1.013zM32.14 40.266c-.219.644-.088 1.15.436 1.472.392-.782.13-1.196-.437-1.472zm.348-5.246c.567 1.013 1.265 1.38 2.094.829-.262-1.059-1.047-1.197-2.094-.828zm-1.134-5.199c1.614-.874.654-1.472.742-2.577-1.134.46-1.832 1.427-.742 2.577zm-2.79 6.212c1.439-.415 2.18-1.15 1.483-2.623-1.09-.092-1.57.782-1.483 2.623zm-.873-3.865c.916.875 1.614.967 2.007.138-.131-.506-.873-.506-2.007-.138zm4.099-1.518c.524.553 1.135.506 1.832-.092-.654-.691-1.264-.645-1.831.092zm2.617-1.29c-.741 1.105-.741 2.072.393 2.808.61-.828.13-1.519-.393-2.807zm.087 11.458c-1.09-.23-1.57.184-1.439 1.012.698.23 1.134-.184 1.44-1.012zm-9.681-9.156c.087.92.828 1.196 2.093.874-.567-1.197-1.265-1.565-2.093-.875zm9.246 6.993c-.305-1.15-.785-1.564-1.483-.874-.044.69.567.874 1.483.874z" fill="#fff"/><path d="M53.379 68.367c-3.731-.788-4.58-.172-9.595-1.782-.436 0-1.265-.414-1.44-.828-.915-.782-.915-1.887-.566-3.13.174-2.3.829-5.015-.044-6.487-.305-.828-1.613-2.346-1.352-3.22.131-.553.131-.921.655-1.473.174-.092.61-.966.785-1.84.261-.093.61-.139 1.09-.093.567.184 1.047.552 1.308 1.105.35.644.48 1.334.436 1.978-.087.414-.261.598-.523.644-.174-.092-.174-.276 0-.598-.087 0-.174.138-.262.23-.087-.506-.261-.874-.785-.874 0 .69.218.874.785.92-.043.092-.087.23-.043.276.261.368.61.414.828.138.35-.506.393-.828.393-1.518.218.828 1.047 2.347 1.526 2.485a.49.49 0 00.567-.138c.131-.184 0-.737-.218-.783 0 .277.218.783-.174.69-.436-.138-.872-1.012-1.221-1.978-.262-.414-.48-1.012-.567-1.886.261-.322.828-.276 1.308-.368l1.526.414c.698.092 1.483.644 1.876 1.288.392.46.61.92.61 1.38-.043.368-.348.783-.785 1.059-.218-.139-.436-.322-.741-.322-.654.046-1.047.644-1.003 1.886.087 1.518.567 2.116 1.744 2.255.873.092 1.92-.46 2.312-1.979.13-1.334-.349-2.024-1.745-1.794.175-.093.306-.23.437-.368.305-.369.392-.92.13-1.427-.218-.414-.392-.736-.567-1.15l1.396.644 1.308.92c.48.322.873.782 1.221 1.288.219.46-.217.415-.61.46.087.277.262.415.48.323.392-.138.567-.46.48-.828-.088-.277-.219-.553-.524-.783l-.96-.828c.131-.23.742 0 1.135-.138.348-.092.785-.23 1.177-.184.175.092.305.184.305.414 0 .23-.392.184-.567-.184-.13.23-.043.598.218.69.262.092.437 0 .611-.368.087-.23.174-.506-.087-.736l1.7-1.242c.568-.415 1.178-.92 1.702-1.519.305-.368.785-.69 1.308-.92.305-.092.567-.138.785-.046.174.138.305.276.305.506 0 .322 0 .46-.261.644-.262.23-.35.046-.35-.368-.392.552-.392.828 0 .828.524-.046.873-.368.96-.92.087-.552-.13-1.012-.698-1.288-.697-.184-1.526.23-2.442 1.058l-1.221 1.012c.349-.644.48-1.196.218-1.564-.392-.414-.829-.368-1.221-.046-.218.184-.087.46.305.782-.087-.322-.087-.736.349-.644.262.092.392.23.349.644-.044.368-.61 1.242-1.047 1.61-.828.92-1.7 1.197-2.573 1.243-.654 0-1.221.046-1.832-.046-.567-.184-1.22-.552-1.57-1.242-.087-.368.088-.599.785-.599.306 0 .48.092.436.368 0 .139-.218.138-.349.185.175.276.393.23.611.046.175-.139.044-.599-.218-.737a1.215 1.215 0 00-.392-.092c.261-.506.218-.966-.175-1.472-.392.506-.305 1.012.087 1.426-.13 0-.261 0-.392.046l-1.221.276c-.916.23-2.094.093-2.53-.46.829-.644 1.44-1.242 1.483-1.794 0-.966-.349-1.335-1.09-1.38.654.414.872 1.104.567 1.61-.306.46-.698.782-1.44 1.104-.523.23-1.09.322-1.613.322-.873.046-1.57-.23-2.312-.69.916-1.196 1.483-2.577 1.788-4.187a1.66 1.66 0 01.96-.598c.567-.184.96-.23 1.265-.092.218.138.392.276.392.644-.044.322-.218.368-.392.322-.088 0-.175-.092-.218-.322-.35.184-.35.322-.218.552.218.138.436.184.654 0 .261-.23.349-.598.261-.966-.13-.598-.916-.69-.916-.92.044-.323.393-.553.524-.92.13-.46.261-.967.087-1.565-.13-.322-.349-.552-.698-.644-.349-.046-.567.092-.828.506-.131.23 0 .506.087.736.174.138.349.184.567 0-.218-.046-.436-.184-.393-.414.087-.276.218-.368.436-.322.567 0 .655.46.524 1.15-.131.644-.48 1.059-.96 1.38l-1.134.369.218-2.623c.437-1.288.873-1.84 1.309-1.703.654.369 1.308 1.013 2.05 2.071.087.23.043.69-.218.782-.131.046-.262 0-.393-.092-.13-.092-.044-.506.044-.69-.306.092-.393.368-.262.782.13.276.349.414.698.322.305-.138.48-.414.567-.874l.218-.092c.436.23.872.414 1.308.552l-.043 1.703c-.044.276-.306.414-.742.506-.349.046-.48-.046-.48-.23.044-.23.175-.322.35-.276-.044-.184-.088-.276-.306-.276-.262.046-.48.276-.392.69.087.276.261.46.654.506.392 0 .785-.184 1.046-.506.175.322.393.69.611.966.305.414.654.598 1.265.598.392-.092.654-.322.654-.69.044-.506-.175-.736-.567-.736-.218.046-.349.184-.349.46.262-.138.523-.092.567.138 0 .322-.218.552-.48.506-.436-.092-.697-.414-.872-.69-.262-.414-.392-.92-.392-1.518 0-.414.043-.737.174-1.059h.174c.873.138 1.701.414 2.574.414 1.22-.092 1.7.046 2.573.414.567.277 1.003.645.96 1.197-.044.322-.306.552-.699.736-.48.184-.697.138-.697-.046 0-.23.13-.368.48-.46-.132-.23-.306-.276-.524-.23-.305.046-.436.552-.262.874.218.322.698.368 1.221.23.437-.138.785-.414 1.003-.966.175-.644-.043-1.288-1.046-1.887.741-.092 1.526.507 2.268 1.427.261.46.392 1.012.436 1.564.043.598-.175.782-.567.644-.175-.046 0-.414.043-.598-.523.092-.654.598-.48.874.175.276.655.415 1.178-.092.436-.506.524-1.15.35-1.932l2.267 2.07a2.65 2.65 0 001.44.553c.566 0 1.046-.184 1.438-.69.262-.277.262-.645.175-1.059-.13-.552-.523-.874-.916-.782-.392.046-.436.322-.305.782.13-.092.13-.368.349-.322.392.046.61.322.523.828-.087.368-.436.69-1.047.69-.698-.046-1.22-.322-1.657-.828l-1.614-1.656c.35-.092.742-.322 1.134-.46a1.487 1.487 0 011.09 0c.306.138.393.368.35.644 0 .368-.437.092-.655 0-.043.506.35.644.829.506.349-.138.305-1.012.087-1.242-.262-.323-.523-.507-.872-.599.305-.414.785-1.242.785-1.886 0-.368-.087-.828-.393-1.058-.349-.23-.959-.092-1.133.092-.175.184-.218.46-.131.782.087.23.349.23.61.276-.261-.23-.392-.414-.261-.644.261-.276.567-.23.828.046.218.276.087.874-.349 1.61-1.308 1.335-2.442 1.519-2.79 1.289-.611-.599-1.266-.967-2.007-1.335.262-.138.523-.322.523-.598-.043-.368-.218-.644-.61-.644-.48 0-.698.184-.654.644.305-.322.566-.414.784-.138.131.184-.087.368-.566.598-.437.092-.655-.276-1.047-.368-.523-.138-1.483-.092-2.268 0 1.003-1.196 1.919-2.162 2.878-2.485.48-.138.83-.046 1.44.277.349.276.654.46.523.782-.13.184-.349.092-.48-.23-.174.23-.13.69.175.736.523 0 .61-.322.654-.644.044-.552-.13-.782-.654-1.105 1.657.184 3.096 0 4.23-.828.829-.69 1.221-1.288 1.134-1.886-.174-.875-.741-1.197-1.44-.967.611.23.786.599.873 1.059.087.552-.61 1.656-1.7 1.886-.568.092-1.135.138-1.702.046a7.968 7.968 0 00-1.483 0c-.654.092-1.133.092-1.788.138-.087-.322-.305-.598-.61-.552-.393.092-.393.368-.175.736.088-.23.218-.598.306-.276.087.23.043.414-.175.644l-1.962 1.197c.087-.506-.044-.875-.61-.967-.219 0-.393.139-.524.369-.087.23.043.414.305.644-.087-.368-.044-.598.305-.598.306.046.262.414.088.782-.131.368-.742.598-1.789.782-.872.092-1.526.046-2.093-.092-1.134-.598-2.224-2.117-2.399-2.99.61-.737 1.134-1.197 1.963-1.243.305 0 .741.092.785.414.044.184 0 .598-.305 1.012-.306.368-.83.23-.742 0 .044-.138.35-.506.436-.138.087-.276-.043-.506-.261-.414-.35.092-.524.414-.393.828.13.368.742.368 1.003.138.436-.46.742-.966.873-1.472a4.245 4.245 0 002.136.276c.567-.184.96-.46.83-1.058-.132-.598-.437-.736-.83-.736-.348.184-.436.414-.174.69.044-.276.262-.46.48-.23.218.184.261.46-.131.782-.698.368-1.745-.092-2.486-.276-.48-.184-.96-.414-1.44-.322l-.828.276a8.094 8.094 0 012.399-1.657c1.352-.46 2.747-1.196 4.187-2.254.96-.69 1.7-1.657 2.311-2.807 1.003-.23 1.701-.092 2.18-.092.437.046.742.276.873.69.13.368.175.736-.13.828-.219.092-.393 0-.524-.414-.262.276-.175.69.174.828-.087 0-.174 0-.261.047-.393.137-.698-.415-1.178-.415-.654.046-1.047.645-1.003 1.887.087 1.518.567 2.116 1.744 2.255.873.092 1.92-.46 2.312-1.98.087-1.057-.175-1.701-1.003-1.84.13-.046.261-.23.436-.506 0-.046.044-.046.044-.092.348 1.335 1.22 2.025 2.442 2.163-.175-2.53-.96-3.037-2.399-2.807a1.62 1.62 0 00-.61-1.104c.828-.552 1.439-1.197 1.7-1.979.175-.874-.087-1.38-.828-1.61-.436-.092-.872.138-1.047.782-.043.322.175.414.61.414-.304-.23-.392-.414-.174-.644.218-.184.436-.184.654 0 .48.368.48.69.262 1.058-.349.598-.916 1.289-1.788 1.519-.741.184-1.44.184-2.137-.046-.436-.092-.13-1.059-1.047-1.519-.436-.138-.872 0-1.264.322-.393.46-.35.829 0 1.15.043-.552.174-.92.48-1.104.305-.184.653 0 1.002.415.262.368.175 1.288-.218 1.886-.785 1.15-1.483 1.979-2.137 2.393-.697.506-1.526.966-2.311 1.242.261-.644.916-.966.828-1.84-.087-.507-1.003-1.15-1.22-1.61-.131-.323.13-.875.48-.783.217.23.173.506 0 .828.392.092.61-.368.522-.782-.13-.414-.654-.506-1.003-.276-.392.322-.48.736-.392 1.15-.087-.138-.262-.23-.436-.322-.35.69-.306 1.242.436 1.426.13-.23.218-.46.174-.644.131.184.306.276.436.46-.436.138-.654.368-.741.736-.087.23.13.369.48.415-.044-.138-.262-.23-.131-.368.13-.184.48-.415.654-.23.218.183.218.46.218.736-.13.506-1.526 1.518-2.137 1.84-1.09.552-2.137 1.473-3.096 2.53-.655.277-1.396.875-1.876 1.795l-.785-1.886c-.305-.92-.567-1.887-.48-2.853.175-.736.35-1.15.524-1.242.567-.046.741.092.698.322-.044.184-.175.138-.262.23.087.506.654.414.654-.368 0-.322-.436-.644-.829-.552 0-.23.088-.506.044-.783 0-.414-.218-.644-.48-.644-.392 0-.567.184-.654.644.35-.276.524-.368.698-.092.087.276-.13.737-.349 1.059-.349.506-.523 1.656-.436 2.714.044.69.305 1.565.654 2.209-.305-.046-.61 0-.872.322-.218.23-.262.782-.175 1.104.175.322.524.322.83.138-.35-.092-.524-.276-.48-.46.043-.276.48-.506.872-.414.261.046.261.92.174 1.15l-.392 1.197.349-.644-.611 1.15-.218 2.53-.436 1.703c-.393-.322-.698-.736-.873-1.38-.043-.276.088-.507.35-.645.217-.137.392-.137.48.047.043.091 0 .276-.044.414.392.046.523-.599.218-.875a.909.909 0 00-1.134.322c-.175.23-.306.553-.35.92-.392-.045-.697-.275-1.09-.321-.305-.046-.654 0-1.003.184-.043-2.715-.043-5.476-.218-8.19-.043-1.427-.174-2.67-.436-3.681.742-1.243 1.57-2.577 2.355-3.313.916-.92 2.006-1.38 3.14-1.38.654.045 1.352.23 2.05.69.741.506.523 1.196.087 1.242-.13 0-.261-.138-.305-.322-.392.276-.305.644.175.874.61.23 1.09-.506 1.003-1.196-.088-.783-.698-1.289-1.483-1.703 1.439 0 3.053-.092 4.405-.69 1.046-.506 1.352-1.288 1.395-2.163.742-.23 1.57-.782 2.268-.874.436-.092.785 0 1.047.322.305.414.305.875-.131.92-.13.046-.262-.091-.349-.414-.087.507.044.829.48.829.567-.046.698-.46.567-1.289-.131-.644-.61-1.012-1.09-1.15.436-.69.872-1.794.915-2.393.044-.874-.261-1.38-1.09-1.38-.48 0-.741.276-.872.782-.175-.736-.742-1.058-1.832-.874-.392.138-.698-.414-1.178-.414-.654.046-1.046.644-1.003 1.886.088 1.519.567 2.117 1.745 2.255.872.092 1.919-.46 2.311-1.979 0-.184.044-.368 0-.552.088.138.262.23.524.276-.306-.552-.218-.874.349-.92.349-.046.61.414.61.828-.087.828-.567 1.61-1.177 2.3-.61.461-1.44.691-2.225.783-.392.046-.785-.276-1.133-.23-.524 0-.786.23-.83.69 0 .276.393.46.699.322-.524-.23-.524-.644.13-.644.35.046.655.23.786.92.043.645-.524 1.059-1.701 1.61-1.222.415-2.574.461-3.882.461.48-.46.916-1.012 1.265-1.748a7.954 7.954 0 00.392-1.979c.262-.184.436-.184.567-.092.131.092.218.276.131.506-.13.184-.305.184-.48.092.262.368.611.322.829-.046.175-.322 0-.736-.262-.874-.305-.092-.523-.046-.828.092-.044-.874-.087-1.795-.262-2.76.567-.047 1.265-.323 1.526-.139.306.184.742.69.35 1.15-.131.092-.393 0-.524-.23-.13.322 0 .46.305.506.48.046.61-.23.654-.644.044-.644-.13-.966-.566-1.242l.566-.598c.35-.46.48-.874.48-1.334a.989.989 0 00-.654-.875c-.392-.138-.567 0-.741.414-.088.277.043.507.305.644.044-.23 0-.552.13-.644.219-.138.524.092.611.414.088.277-.218.783-.828 1.473-.48.414-1.134.46-1.745.552-.262-1.472-.96-3.083-1.003-4.647.044-1.242.829-1.519 1.44-1.012.217.276.392.322.348.69 0 .46-.436.276-.698.092.044.46.655.69.916.276.262-.736-.043-1.289-.828-1.657-1.178-.276-1.701.322-1.788 1.565-.131 1.38.959 3.773.828 4.647-.523-1.104-1.265-1.38-1.919-1.242-.261.092-.392.184-.48.552-.13.506.175.966.785.552-.48-.184-.566-.46-.218-.69.306 0 .524.138.785.368.96.828 1.396 1.886 1.483 3.773 0 1.196-.48 2.577-1.177 4.049h-.262c-1.003 0-1.744.184-2.53.552a.854.854 0 00-.087-.782c-.218-.276-.392-.322-.741-.23-.262.138-.48.276-.523.736-.044.276.174.552.523.322-.218-.046-.218-.184-.175-.322.131-.322.262-.414.437-.368.218.046.261.276.218.782l.087-.046c-.044.046-.131.046-.175.092-.349.276-1.22 1.15-1.526 1.334-.916.553-1.221.92-2.05 1.795-.087.138-.13.276-.174.414-.044-.046-.044-.138-.087-.184-.916-2.209-1.44-4.28-1.396-6.166.174-1.104 1.047-1.84 2.573-2.208.916-.184 1.396 0 1.09.414-.13.184-.436.138-.741.092.087.276.262.414.523.414.35.046.742-.23.742-.506.043-.552-.262-.828-.698-.782-.567.092-1.221.092-1.657 0 .828-.69 1.7-1.335 2.398-2.255.175-.322.088-.644-.174-.92.13-.322.218-.782.262-1.289-.96.46-1.396 1.197-1.309 2.163.393-.092.698-.276.916-.598.13.138.087.322-.044.46-.828.966-1.919 1.84-3.052 2.715-.611.276-1.09.276-1.222-.23-.436-1.427-.392-3.037-.218-4.648.655-.736 1.178-1.472 1.44-2.162.087-.23.13-.414 0-.644-.131-.276-.48-.414-.611-.184-.087.23-.044.414.087.414 0-.184.131-.414.262-.184.087.23.044.414-.044.598-.261.598-.61.828-.697.552.043-1.38-.088-2.577-.655-3.727-.567-.828-1.439-1.472-2.311-1.518-.393 0-.742.184-.96.552-.043.506.306.874.742.966-.262-.322-.393-.598-.262-.874.349-.276.785-.276 1.221-.092 1.047.506 1.57 1.518 1.701 2.623.131 1.334.218 2.668-.349 3.818-.654-.552-1.657-1.886-1.7-2.162.043-.552.348-.414.566-.322.088.138 0 .276-.218.46.436.046.524-.138.48-.414-.087-.368-.393-.506-.872-.322-.306.138-.306.966.087 1.426l1.526 1.84c-.348 2.807.437 4.556.262 6.718-.349-.23-.567-.92-1.003-1.104a1.42 1.42 0 00-1.221 0c-.262.138-.262.46-.218.782.13.506.61.506.828.092-.436.092-.61-.184-.523-.414.218-.276.48-.368.829-.276.349.138.698.644 1.003 1.243-.087.874 0 1.656.174 2.346a46.87 46.87 0 01.916 3.313c0-.046-.044-.046-.044-.092-.785-.874-1.133-1.242-2.05-1.794-.305-.184-1.177-1.059-1.526-1.335-.043-.046-.13-.092-.174-.092l.087.046c-.044-.506 0-.69.218-.782.175-.046.305.046.436.368.044.138.044.276-.174.322.349.23.567-.046.523-.322-.087-.46-.262-.598-.523-.736-.305-.092-.48-.046-.742.23a.972.972 0 00-.087.782c-.785-.368-1.526-.552-2.53-.552h-.261c-.698-1.472-1.178-2.853-1.178-4.05.044-1.886.48-2.944 1.483-3.772.262-.23.48-.368.785-.368.35.276.262.506-.218.69.61.414.916-.046.785-.552-.087-.368-.218-.46-.48-.552-.654-.138-1.395.184-1.918 1.242-.131-.874.959-3.267.828-4.647-.087-1.242-.61-1.887-1.788-1.565-.785.368-1.09.92-.829 1.657.262.414.873.23.916-.276-.261.184-.698.322-.698-.092 0-.368.131-.414.35-.69.61-.507 1.395-.23 1.439 1.012 0 1.564-.698 3.129-1.004 4.647-.61-.092-1.264-.138-1.744-.552-.61-.69-.916-1.196-.829-1.473.088-.322.393-.552.61-.414.175.092.088.415.132.645.261-.139.392-.369.305-.645-.174-.46-.349-.598-.741-.414-.35.138-.567.414-.655.874 0 .46.131.875.48 1.335l.567.598c-.436.276-.61.598-.567 1.242.044.415.218.69.654.644.306-.091.437-.183.306-.506-.131.184-.436.277-.524.23-.392-.46.044-.966.35-1.15.26-.184.959.092 1.526.138a32.913 32.913 0 00-.262 2.76c-.305-.137-.523-.183-.829-.091-.305.138-.436.552-.261.874.218.414.61.46.828.046-.174.092-.349.092-.48-.092-.087-.23 0-.414.131-.506.131-.092.35-.046.567.092.044.644.131 1.334.393 1.979.349.736.785 1.334 1.265 1.748-1.352 0-2.66-.046-3.882-.46-1.177-.552-1.744-1.012-1.7-1.61.13-.737.435-.875.784-.92.61 0 .654.413.131.643.349.138.698-.046.698-.322-.044-.46-.305-.69-.829-.69-.392 0-.741.276-1.134.23a5.401 5.401 0 01-2.224-.782c-.61-.69-1.09-1.472-1.178-2.3 0-.369.262-.829.611-.829.567.046.61.368.349.92.218-.046.349-.092.48-.184 0 .138 0 .23.043.368.393 1.519 1.483 2.117 2.399 2.025 1.221-.138 1.744-.782 1.788-2.347.044-1.288-.349-1.886-1.047-1.932-.523 0-.828.552-1.22.414-1.091-.184-1.702.138-1.876.874-.13-.368-.393-.644-.829-.598-.828 0-1.134.552-1.09 1.38.044.598.48 1.703.916 2.393-.48.138-.96.506-1.09 1.15-.131.782 0 1.243.566 1.289.437-.046.611-.322.48-.829-.087.322-.218.415-.349.415-.436-.046-.436-.553-.13-.92.218-.323.566-.415 1.046-.323.698.092 1.527.598 2.268.874 0 .875.349 1.61 1.396 2.163 1.395.552 2.965.69 4.405.69-.785.414-1.396.92-1.483 1.703-.087.69.392 1.426 1.003 1.196.48-.184.567-.598.174-.874-.087.23-.174.322-.305.322-.436-.046-.654-.736.087-1.242a4.176 4.176 0 012.05-.69c1.134.045 2.18.505 3.096 1.38 1.178 1.104 2.486 3.405 3.315 5.015 0-.092 0-.23.044-.322a46.42 46.42 0 01.436 4.233c-.698-.184-1.44-.598-2.094-1.15-.436-.644-.697-1.335-.697-2.07.043-.323.305-.599.654-.599.174.046.436.092.523.23.044.092.087.23.044.368-.087.23-.175.23-.48.368.262.046.654 0 .741-.322.044-.276.088-.506-.13-.782a.933.933 0 00-.83-.276c-.435.046-.74.322-.871.736-.131.506-.044 1.012.13 1.518.175.507.698 1.105.785 1.473-.348.092-.784.184-1.003.644-.174.368-.218.736-.174 1.104.13.46.393.599.698.599.349 0 .48-.46.436-.829-.174.138-.262.506-.48.46-.218-.092-.305-.23-.261-.46.13-.598.392-.782.915-.874.524-.046 1.527.46 2.225.874.043 2.209.392 12.286-3.664 9.8-.61-.597-1.221-1.61-1.57-2.438.218-.598.654-1.15 1.221-1.61.436-.276.96-.276 1.44-.276.392 0 .872.414.785.828-.088.23-.262.322-.437.322-.218 0-.305-.138-.348-.46-.131.276-.088.506.087.69.218.138.436.184.697.092.262-.184.393-.414.393-.736s-.218-.598-.48-.828a1.746 1.746 0 00-1.134-.23c-.392.046-.697.276-1.09.322-.044-.368-.174-.644-.349-.92-.261-.415-.698-.507-1.134-.322-.305.276-.174.92.218.874-.043-.138-.13-.322-.043-.414.13-.184.305-.184.48-.046.261.138.392.368.348.644-.174.69-.523 1.058-.872 1.38l-.436-1.702-.218-2.531-.61-1.15.348.644-.349-1.15c-.218-.46-.218-1.335.044-1.38.392-.093.872.137.872.413 0 .23-.174.368-.48.46.306.138.698.184.829-.138.087-.322.087-.828-.174-1.104-.262-.322-.567-.368-.873-.322a8.002 8.002 0 00.655-2.209c.087-1.104-.088-2.254-.437-2.714-.218-.276-.436-.782-.348-1.059.174-.322.348-.184.697.092-.087-.46-.261-.69-.654-.644-.262 0-.436.23-.48.644-.043.276.088.553.044.783-.392-.092-.785.23-.829.552-.043.736.524.874.655.368-.088-.092-.262-.046-.262-.23-.044-.23.13-.368.698-.322.218.092.392.506.523 1.242.087.966-.13 1.933-.48 2.853l-.741 1.932c-.48-.92-1.221-1.518-1.875-1.794-1.004-1.058-2.007-1.933-3.097-2.53-.61-.323-2.006-1.381-2.137-1.841-.044-.23-.044-.506.218-.736.174-.184.523 0 .654.23.087.138-.087.23-.13.368.348-.046.566-.138.48-.414-.088-.323-.306-.599-.742-.737.13-.184.305-.276.436-.46 0 .184.044.414.174.644.742-.23.785-.736.436-1.426a1.25 1.25 0 00-.436.322c.087-.414 0-.828-.392-1.15-.35-.23-.829-.138-1.003.276-.087.414.13.874.523.782-.174-.322-.218-.598 0-.828.349-.092.61.46.48.782-.175.46-1.09 1.104-1.221 1.61-.088.875.567 1.197.828 1.841-.828-.276-1.613-.736-2.311-1.242-.654-.46-1.352-1.243-2.137-2.393-.393-.552-.48-1.472-.218-1.887.349-.46.697-.598 1.003-.414.305.184.48.553.48 1.105.348-.322.392-.69 0-1.15-.35-.277-.83-.46-1.265-.323-.916.46-.61 1.427-1.047 1.519-.698.23-1.396.23-2.137.046-.916-.23-1.44-.966-1.788-1.519-.218-.368-.218-.69.262-1.058a.568.568 0 01.654 0c.218.23.13.414-.175.644.393 0 .61-.092.61-.414-.217-.644-.61-.874-1.046-.782-.741.23-1.003.736-.828 1.61.218.782.872 1.427 1.7 1.979a1.62 1.62 0 00-.61 1.104c-1.396-.23-2.18.276-2.399 2.807 1.221-.138 2.05-.828 2.442-2.163 0 .046.044.046.044.092.393.645.61.553.96.507.436-.139.567-.553.261-.875-.13.414-.305.506-.523.414-.305-.138-.262-.506-.13-.828.174-.414.435-.644.871-.69.48.046 1.221-.092 2.181.092a7.886 7.886 0 002.311 2.807c1.44 1.058 2.835 1.84 4.187 2.254.829.368 1.614.92 2.399 1.657l-.654-.138c-.48-.092-.96.138-1.44.322-.74.184-1.831.644-2.485.276-.393-.322-.35-.598-.131-.782.218-.23.436-.046.48.23.261-.276.13-.506-.175-.69-.392 0-.698.184-.829.736-.13.598.262.874.83 1.058.74.092 1.482 0 2.136-.276.087.506.393 1.012.872 1.472.262.23.873.276 1.003-.138.131-.46-.087-.736-.392-.828-.218-.046-.393.138-.262.414.088-.368.35 0 .436.138.088.276-.436.414-.741 0s-.349-.828-.305-1.012c.043-.368.436-.46.785-.414.828.046 1.395.506 1.962 1.242-.174.874-1.264 2.393-2.398 2.991-.567.138-1.222.184-2.094.092-1.047-.184-1.614-.414-1.788-.782-.174-.368-.218-.736.087-.782.35 0 .35.23.306.598.261-.23.392-.414.305-.644-.131-.23-.305-.369-.524-.369-.567.093-.697.46-.61.967l-1.963-1.197a.54.54 0 01-.174-.644c.13-.276.262.046.305.276.218-.368.218-.644-.174-.736-.306-.046-.524.23-.61.552-.655-.046-1.135-.046-1.789-.138a7.97 7.97 0 00-1.483 0c-.567.092-1.177.046-1.7-.046-1.091-.23-1.789-1.334-1.702-1.886.088-.46.306-.874.873-1.059-.698-.276-1.265.093-1.44.967-.087.552.306 1.196 1.134 1.886 1.134.782 2.573 1.012 4.23.828-.566.277-.697.553-.653 1.105.043.322.174.644.654.644.261-.046.305-.46.174-.736-.13.322-.305.414-.48.23-.174-.322.175-.506.524-.782.61-.369.96-.415 1.44-.277.959.323 1.874 1.335 2.877 2.485-.828-.092-1.788-.138-2.267 0-.393.138-.655.46-1.047.368-.48-.23-.698-.414-.567-.598.218-.276.48-.184.785.138.044-.414-.174-.644-.654-.644-.393.046-.567.276-.61.644 0 .276.217.46.523.598-.698.368-1.396.736-2.007 1.335-.348.23-1.482.046-2.79-1.289-.437-.736-.568-1.334-.35-1.61.262-.276.567-.322.829-.046.13.23 0 .414-.262.644.218 0 .48-.046.61-.276.088-.322.088-.598-.13-.782-.13-.184-.741-.322-1.134-.092-.305.23-.392.69-.392 1.058 0 .598.48 1.426.785 1.886a1.463 1.463 0 00-.873.599c-.218.23-.261 1.104.088 1.242.48.138.872-.046.828-.506-.218.138-.654.368-.654 0-.044-.23.087-.506.349-.644a1.487 1.487 0 011.09 0c.35.138.785.414 1.134.46l-1.614 1.656c-.436.506-.959.782-1.657.828-.61 0-.96-.322-1.046-.69-.044-.46.13-.736.523-.828.218-.046.218.23.349.322.13-.46.043-.736-.305-.782-.393-.092-.785.23-.916.782-.088.46-.088.782.174 1.058.393.507.872.69 1.44.69.566-.045 1.002-.23 1.438-.552l2.268-2.07c-.174.736-.087 1.426.35 1.932.479.507 1.002.415 1.177.092.174-.322 0-.782-.48-.874.044.23.218.552.044.598-.393.138-.567-.092-.567-.644.043-.552.174-1.104.436-1.564.741-.92 1.526-1.519 2.268-1.427-1.003.599-1.221 1.243-1.047 1.887.218.552.567.828 1.003.966.48.138 1.003.092 1.221-.23.175-.322.044-.782-.261-.874-.219-.046-.393 0-.524.23.35.046.48.23.48.46s-.218.23-.698.046c-.392-.184-.61-.414-.698-.736 0-.506.393-.92.96-1.197.872-.368 1.395-.506 2.573-.414.872.046 1.7-.276 2.573-.414h.175c.13.276.218.645.174 1.059-.044.598-.13 1.104-.392 1.518-.175.322-.437.598-.873.69-.261.046-.48-.184-.48-.506.044-.23.262-.276.567-.138 0-.276-.13-.414-.348-.46-.393 0-.611.23-.567.736 0 .368.261.598.654.69.61 0 .96-.184 1.265-.598.218-.276.436-.644.61-.966.262.322.654.506 1.047.506.392-.046.61-.23.654-.506.044-.414-.13-.644-.392-.69-.218-.046-.306.046-.306.276.175-.046.306.046.35.276 0 .184-.088.276-.48.23-.437-.092-.698-.276-.742-.506l-.044-1.703c.48-.092.916-.276 1.309-.552l.218.092c.087.46.262.736.567.874.349.092.61-.046.698-.322.13-.414.043-.69-.262-.782.087.184.174.644.044.69-.131.046-.262.092-.393.092-.262-.092-.349-.506-.218-.782.741-1.058 1.396-1.702 2.05-2.07.392-.184.828.414 1.308 1.702l.218 2.623-1.134-.368c-.48-.323-.828-.783-.96-1.38-.13-.69-.043-1.151.524-1.151.218-.046.35.046.436.322.044.276-.174.414-.392.414.174.138.349.138.567 0 .087-.23.174-.506.087-.736-.262-.414-.48-.552-.829-.506-.349.046-.567.322-.697.644-.131.598 0 1.104.087 1.564.13.368.436.645.523.92 0 .23-.785.323-.916.92-.087.369 0 .737.262.967a.568.568 0 00.654 0c.13-.23.13-.368-.043-.506-.044.184-.131.322-.219.322-.174.046-.305-.046-.392-.322-.044-.368.174-.506.392-.644.306-.138.698-.092 1.265.092.393.092.698.276.96.598a10.076 10.076 0 001.526 3.819c-.087.138-.13.322-.174.552-.61.322-1.221.506-1.92.46a4.04 4.04 0 01-1.613-.322c-.785-.322-1.177-.644-1.44-1.104-.305-.506-.13-1.196.568-1.61-.742.046-1.047.414-1.09 1.38.043.552.654 1.196 1.482 1.794-.436.599-1.657.69-2.53.46l-1.439-.414c-.13-.046-.261-.046-.392-.046.392-.46.48-.92.087-1.426-.392.506-.436.966-.174 1.472a.788.788 0 00-.35.092c-.304.138-.392.598-.217.737.218.184.436.23.61-.046-.13 0-.349-.046-.349-.184-.043-.277.131-.369.437-.369.654 0 .872.23.785.599-.35.69-1.003 1.058-1.57 1.242-.611.092-1.178 0-1.832.046-.872-.046-1.745-.322-2.573-1.242-.436-.322-1.003-1.243-1.047-1.61-.044-.369.087-.553.349-.645.436-.092.392.322.349.644.392-.322.523-.598.305-.782-.436-.276-.829-.368-1.221.046-.262.368-.13.92.218 1.564l-1.308-1.012c-.916-.828-1.745-1.242-2.443-1.058-.567.276-.785.736-.697 1.288.087.552.436.874.959.92.393 0 .393-.276 0-.828 0 .414-.087.598-.349.368-.262-.184-.305-.368-.262-.644 0-.23.131-.368.306-.506a.94.94 0 01.785.046c.523.23.96.552 1.308.92.567.644 1.134 1.104 1.701 1.519l1.7 1.242c-.26.23-.174.506-.086.736.174.322.392.46.61.368.262-.092.35-.46.218-.69-.174.322-.567.414-.567.184 0-.23.088-.322.306-.414.392-.046.828.092 1.177.184.35.138 1.003-.092 1.134.138l-.916.828a1.76 1.76 0 00-.523.782c-.044.369.087.69.48.829.218.046.392-.046.48-.322-.35 0-.83 0-.611-.46.349-.507.698-.92 1.221-1.289l1.308-.92 1.396-.644c-.218.414-.393.736-.567 1.15a1.291 1.291 0 00.13 1.427c.35.46.917.598 1.484.598-.654-.23-1.265-.829-1.352-1.38 0-.46.218-.921.61-1.381.436-.644 1.178-1.196 1.876-1.288l1.526-.414c.48.092 1.047.092 1.308.367-.087.875-.305 1.427-.567 1.887-.392.966-.828 1.84-1.22 1.979-.393.092-.175-.415-.175-.69-.218.091-.35.644-.218.782.13.138.261.23.567.138.48-.138 1.308-1.61 1.526-2.485 0 .69.044 1.012.393 1.518.218.276.567.276.828-.138.044-.046 0-.184-.043-.276.567-.046.785-.276.785-.92-.524 0-.698.368-.785.874-.087-.138-.175-.23-.262-.23.175.276.175.506 0 .598-.262-.046-.436-.184-.523-.644-.087-.69.087-1.334.436-1.978.218-.368 1.003-1.243 1.439-1.059.13.046.262.046.392.184 1.396 1.427 3.664 2.301 3.402 4.51-.218 2.162-1.264 2.484-.654 5.153.436 1.979 1.134 3.865 1.134 5.2.044 3.128-8.286 4.37-11.863 4.693-6.18.559-11.829 1.997-17.88 3.426v.347h63.412v-.347c-4.924-.956-13.147-3.526-16.878-4.313zm-20.978-19.91c-.043-.093-.043-.185-.043-.231l.087.138v.092H32.4z" fill="#fff"/><defs><linearGradient id="paint0_linear" x1="38.5" y1="0" x2="38.5" y2="77" gradientUnits="userSpaceOnUse"><stop stop-color="#FF8500"/><stop offset=".26" stop-color="#FF7900"/><stop offset=".688" stop-color="#FF6D00"/><stop offset="1" stop-color="#FA6000"/></linearGradient></defs></svg>