<svg width="14" height="15" viewBox="0 0 14 15" fill="none" xmlns="http://www.w3.org/2000/svg">
<path d="M13.9702 11.1756C13.9306 11.06 13.6787 10.8897 13.2146 10.6651C13.0888 10.5943 12.9097 10.4982 12.6779 10.3761C12.4458 10.2541 12.2352 10.1416 12.0464 10.0389C11.8572 9.93613 11.68 9.8366 11.5144 9.74041C11.4879 9.72114 11.4051 9.66504 11.2659 9.57172C11.1265 9.47866 11.009 9.4096 10.9127 9.36456C10.8166 9.31979 10.7221 9.29725 10.6293 9.29725C10.4967 9.29725 10.3311 9.38882 10.1323 9.57172C9.93353 9.75485 9.75118 9.95378 9.58553 10.1691C9.41986 10.3843 9.24415 10.5832 9.05872 10.7663C8.87302 10.9494 8.72044 11.0408 8.60126 11.0408C8.54142 11.0408 8.46682 11.0247 8.37742 10.9928C8.28805 10.9607 8.22006 10.9332 8.17339 10.911C8.12714 10.8884 8.04777 10.8436 7.93499 10.776C7.82201 10.7085 7.75918 10.6716 7.74595 10.6651C6.8378 10.177 6.05894 9.61824 5.40922 8.98911C4.75972 8.35961 4.18289 7.60518 3.6791 6.72534C3.67249 6.71248 3.63428 6.65145 3.56473 6.54234C3.49507 6.43312 3.44865 6.35617 3.42545 6.31109C3.40225 6.26618 3.37408 6.20033 3.34099 6.11365C3.3079 6.02698 3.29129 5.95477 3.29129 5.89691C3.29129 5.78139 3.38578 5.63361 3.57472 5.45379C3.76363 5.27406 3.96919 5.10381 4.19118 4.94339C4.41335 4.78296 4.6187 4.6063 4.80767 4.41372C4.99658 4.22104 5.09103 4.06057 5.09103 3.93216C5.09103 3.84232 5.06784 3.75072 5.02148 3.65763C4.97509 3.56434 4.90383 3.45051 4.80767 3.31559C4.71148 3.18073 4.65349 3.10053 4.63357 3.07472C4.53424 2.9143 4.4316 2.74253 4.32541 2.5595C4.21922 2.3765 4.10331 2.17251 3.9773 1.94778C3.8514 1.72315 3.75203 1.54969 3.67903 1.42769C3.44715 0.978259 3.27151 0.734125 3.15215 0.69573C3.10573 0.676465 3.03607 0.666748 2.94336 0.666748C2.76427 0.666748 2.53065 0.6988 2.2423 0.763106C1.95386 0.827311 1.72688 0.894654 1.56114 0.965404C1.22968 1.10019 0.878365 1.4919 0.507097 2.14039C0.169021 2.74391 0 3.34126 0 3.932C0 4.10524 0.0115978 4.2738 0.0347933 4.43771C0.0579888 4.60144 0.0994343 4.78609 0.159164 4.99163C0.21879 5.1971 0.266888 5.34974 0.303248 5.44913C0.339644 5.54859 0.407593 5.72677 0.507063 5.98372C0.606392 6.24061 0.666123 6.39787 0.686009 6.45566C0.917999 7.08503 1.19311 7.64688 1.51126 8.14139C2.03473 8.96334 2.74909 9.81278 3.65392 10.6894C4.55879 11.5659 5.43548 12.2579 6.28404 12.7652C6.79444 13.0734 7.37464 13.3398 8.02422 13.5647C8.08392 13.5839 8.24625 13.6416 8.51133 13.7382C8.77651 13.8345 8.96051 13.9003 9.06318 13.9356C9.16589 13.971 9.32349 14.0176 9.53542 14.0755C9.7478 14.1333 9.93824 14.1735 10.1073 14.1961C10.2764 14.2183 10.4504 14.2297 10.6293 14.2297C11.2391 14.2297 11.8557 14.0659 12.4788 13.7384C13.1482 13.3789 13.5525 13.0385 13.6917 12.7172C13.7649 12.5568 13.8342 12.3369 13.9005 12.0574C13.967 11.7781 14 11.5518 14 11.3784C14.0002 11.2882 13.9902 11.2209 13.9702 11.1756Z" fill="#C8AE99"/>
</svg>
