<svg width="296" height="64" fill="none" xmlns="http://www.w3.org/2000/svg"><path d="M101.298 49.504l-.02.02h-3.24v-.061c.429-.123.643-.416.643-.88v-.357l-.02-.256-.9-6.674-3.75 8.402a3.695 3.695 0 01-.798-.634 5.857 5.857 0 01-.583-.92l-3.332-6.848-1.002 6.715v.215c0 .082-.006.163-.02.245 0 .484.205.814.613.992v.06h-2.708v-.06c.463-.307.77-.93.92-1.87l.95-6.216.041-.296.041-.164v-.235c0-.354-.198-.616-.593-.787l2.954-.02c.041.252.106.46.194.623l3.18 6.491 2.84-6.347c.117-.198.188-.454.215-.767h2.913c-.313.109-.49.388-.531.838l.02.286 1.094 6.992c.048.45.133.763.256.94.102.19.31.382.623.573zm10.457-2.178l-1.023 1.942a8.14 8.14 0 01-2.892.552c-1.615 0-3.026-.463-4.232-1.39-1.199-.933-1.799-2.2-1.799-3.802v-.133c0-1.274.46-2.412 1.38-3.414.927-1.002 2.228-1.503 3.905-1.503.858 0 1.649.201 2.371.604a4.255 4.255 0 011.707 1.676c.388.695.583 1.506.583 2.433v.081h-7.677c0 .961.3 1.84.9 2.638.606.79 1.533 1.243 2.78 1.359.218 0 .392.014.521.04.266 0 .545-.023.838-.07.293-.055.607-.127.941-.215a5.336 5.336 0 001.656-.798h.041zm-2.178-4.19a1.81 1.81 0 00-.224-.9 2.027 2.027 0 00-.614-.685 2.874 2.874 0 00-.838-.429 3.087 3.087 0 00-.961-.143c-.667 0-1.274.19-1.819.572-.538.382-.859.91-.961 1.585h5.417zm13.206 4.252c0 .443-.071.78-.214 1.012-.273.443-.832.817-1.676 1.124v-5.489c0-.974-.27-1.727-.808-2.259-.538-.531-1.254-.797-2.146-.797-.907 0-1.643.3-2.208.9-.62.654-.93 1.57-.93 2.749 0 1.09.364 2 1.093 2.729.702.702 1.554 1.053 2.556 1.053.368 0 .708-.051 1.022-.153.313-.11.599-.26.858-.45l-1.277 1.89c-.45.062-.883.093-1.298.093-1.575 0-2.801-.416-3.68-1.247-.941-.886-1.411-2.191-1.411-3.915 0-1.24.443-2.354 1.329-3.343.995-1.11 2.262-1.666 3.802-1.666 1.104 0 2.137.399 3.098 1.196v-2.453c0-.504-.215-.947-.644-1.329-.477-.422-1.077-.633-1.799-.633-.743 0-1.37.167-1.881.5-.382.287-.76.573-1.135.86l-1.451-1.595a934.38 934.38 0 012.238-.798c.723-.218 1.268-.327 1.636-.327 1.417 0 2.582.303 3.495.91.954.634 1.431 1.479 1.431 2.535v8.903zm12.348 2.269l-1.462-.133-.797-.378-.44-1.002c-.402.688-.865 1.135-1.39 1.34a4.743 4.743 0 01-1.686.295c-2.399 0-3.598-1.383-3.598-4.15v-4.333c0-.593-.273-1.04-.818-1.34v-.081c.525 0 .879.014 1.063.04.402 0 .736-.026 1.002-.08.266-.056.463-.127.593-.216h.041v5.612c0 1.983.78 2.974 2.34 2.974.661 0 1.234-.235 1.718-.705.49-.477.735-1.206.735-2.187v-3.598c0-.457-.054-.818-.163-1.084-.109-.265-.327-.49-.654-.674v-.082c.865 0 1.397.014 1.594.04.477-.04.832-.139 1.063-.296h.041v7.85c0 .464.021.798.062 1.002.034.327.119.559.255.695.123.157.29.29.501.399v.092zm10.599 1.891c-.136-.552-.323-1.009-.562-1.37a1.513 1.513 0 00-.981-.674h-8.095v-.041c.422-.164.633-.648.633-1.452v-6.695c0-.763-.211-1.216-.633-1.36v-.06h3.219v.06c-.422.123-.633.576-.633 1.36v7.114h3.853v-7.114c0-.763-.214-1.216-.644-1.36v-.06h3.302v.06c-.43.137-.644.59-.644 1.36v7.114h1.185v3.118zm11.213-1.891l-1.461-.133-.798-.378-.439-1.002c-.402.688-.865 1.135-1.39 1.34a4.748 4.748 0 01-1.687.295c-2.398 0-3.598-1.383-3.598-4.15v-4.333c0-.593-.272-1.04-.817-1.34v-.081c.524 0 .879.014 1.063.04.402 0 .736-.026 1.001-.08.266-.056.464-.127.593-.216h.041v5.612c0 1.983.78 2.974 2.341 2.974.661 0 1.233-.235 1.717-.705.491-.477.736-1.206.736-2.187v-3.598c0-.457-.055-.818-.164-1.084-.109-.265-.327-.49-.654-.674v-.082c.866 0 1.397.014 1.595.04.477-.04.831-.139 1.063-.296h.041v7.85c0 .464.02.798.061 1.002.034.327.119.559.256.695.122.157.289.29.5.399v.092zm10.569-.133h-3.455v-.061c.43-.144.644-.607.644-1.39V44.77h-4.068v3.301c0 .784.212 1.247.634 1.39v.062h-3.363v-.061c.423-.144.634-.607.634-1.39v-6.777c0-.798-.211-1.278-.634-1.441v-.052h3.363v.052c-.259.102-.429.303-.511.603-.082.3-.123.698-.123 1.196v2.064h4.068V41.5c0-.43-.037-.787-.112-1.073a.736.736 0 00-.532-.572v-.052h3.455v.052a.868.868 0 00-.501.5c-.095.273-.143.655-.143 1.145v6.572c0 .784.215 1.247.644 1.39v.062zm10.528-2.136l-1.083 2.003a9.02 9.02 0 01-2.617.389c-1.642 0-3.039-.454-4.191-1.36-1.144-.906-1.717-2.068-1.717-3.486 0-1.158.28-2.14.838-2.943a5.006 5.006 0 012.218-1.789 7.532 7.532 0 012.975-.583c.783 0 1.53.086 2.238.256v2.136h-.081c-.607-.66-1.452-.991-2.535-.991-.968 0-1.796.31-2.484.93-.688.62-1.033 1.468-1.033 2.545v.082c0 .525.11 1.008.328 1.451.224.436.555.849.991 1.237.859.763 1.85 1.145 2.974 1.145a5.01 5.01 0 001.615-.256 5.911 5.911 0 001.503-.766h.061zm10.15 2.136h-1.625c-.429 0-.787-.058-1.073-.174-.266-.088-.453-.204-.562-.347a5.471 5.471 0 01-.266-.338 16.81 16.81 0 01-.409-.572l-2.923-3.976 1.983-2.198c.531-.613.797-1.066.797-1.36 0-.272-.126-.473-.378-.602v-.082h3.189l-3.527 4.037 2.709 3.414.562.726c.171.245.382.494.634.746s.548.494.889.726zm-6.46 0h-3.475v-.082c.375-.238.596-.477.664-.715.069-.246.103-.784.103-1.615v-5.254c0-.286-.007-.521-.021-.705a3.246 3.246 0 00-.082-.532c-.081-.252-.303-.467-.664-.644v-.04l1.002-.021h.255c.273 0 .467-.014.583-.041a1.2 1.2 0 00.225-.02c.068-.02.146-.052.235-.092a.615.615 0 00.317-.205h.041v8.075c0 .477.047.835.143 1.073.081.273.306.518.674.736v.082zm16.774.133l-1.462-.133-.797-.378-.44-1.002c-.402.688-.865 1.135-1.39 1.34a4.748 4.748 0 01-1.687.295c-2.398 0-3.597-1.383-3.597-4.15v-4.333c0-.593-.273-1.04-.818-1.34v-.081c.525 0 .879.014 1.063.04.402 0 .736-.026 1.002-.08.265-.056.463-.127.592-.216h.041v5.612c0 1.983.78 2.974 2.341 2.974.661 0 1.233-.235 1.717-.705.491-.477.736-1.206.736-2.187v-3.598c0-.457-.054-.818-.163-1.084-.109-.265-.328-.49-.655-.674v-.082c.866 0 1.397.014 1.595.04.477-.04.831-.139 1.063-.296h.041v7.85c0 .464.02.798.061 1.002.034.327.119.559.256.695.122.157.289.29.501.399v.092zm7.972-12.072l-3.005 1.554 2.004-2.934 1.001 1.38zm3.312 12.072l-1.462-.133-.797-.378-.439-1.002c-.403.688-.866 1.135-1.391 1.34a4.739 4.739 0 01-1.686.295c-2.399 0-3.598-1.383-3.598-4.15v-4.333c0-.593-.273-1.04-.818-1.34v-.081c.525 0 .879.014 1.063.04.402 0 .736-.026 1.002-.08.266-.056.463-.127.593-.216h.041v5.612c0 1.983.78 2.974 2.34 2.974.661 0 1.234-.235 1.718-.705.49-.477.736-1.206.736-2.187v-3.598c0-.457-.055-.818-.164-1.084-.109-.265-.327-.49-.654-.674v-.082c.865 0 1.397.014 1.594.04.477-.04.832-.139 1.063-.296h.041v7.85c0 .464.021.798.062 1.002.034.327.119.559.255.695.123.157.29.29.501.399v.092zm16.446 1.891c-.136-.552-.323-1.009-.562-1.37a1.515 1.515 0 00-.981-.674h-8.096v-.041c.423-.164.634-.648.634-1.452v-6.695c0-.763-.211-1.216-.634-1.36v-.06h3.22v.06c-.422.123-.634.576-.634 1.36v7.114h3.854v-7.114c0-.763-.215-1.216-.644-1.36v-.06h3.301v.06c-.429.137-.643.59-.643 1.36v7.114h1.185v3.118zm10.876-4.222l-1.022 1.942c-.975.368-1.939.552-2.893.552-1.615 0-3.026-.463-4.232-1.39-1.199-.933-1.799-2.2-1.799-3.802v-.133c0-1.274.46-2.412 1.38-3.414.927-1.002 2.228-1.503 3.905-1.503.858 0 1.649.201 2.371.604a4.255 4.255 0 011.707 1.676c.389.695.583 1.506.583 2.433v.081h-7.677c0 .961.3 1.84.9 2.638.606.79 1.533 1.243 2.78 1.359.218 0 .392.014.521.04.266 0 .546-.023.839-.07.293-.055.606-.127.94-.215a5.336 5.336 0 001.656-.798h.041zm-2.177-4.19a1.8 1.8 0 00-.225-.9 2.017 2.017 0 00-.614-.685 2.874 2.874 0 00-.838-.429 3.087 3.087 0 00-.961-.143c-.667 0-1.274.19-1.819.572-.538.382-.859.91-.961 1.585h5.418zm12.695 6.388h-3.455v-.061c.429-.144.644-.607.644-1.39V44.77h-4.068v3.301c0 .784.211 1.247.633 1.39v.062h-3.363v-.061c.423-.144.634-.607.634-1.39v-6.777c0-.798-.211-1.278-.634-1.441v-.052h3.363v.052c-.259.102-.429.303-.511.603-.082.3-.122.698-.122 1.196v2.064h4.068V41.5c0-.43-.038-.787-.113-1.073a.736.736 0 00-.531-.572v-.052h3.455v.052a.863.863 0 00-.501.5c-.096.273-.143.655-.143 1.145v6.572c0 .784.214 1.247.644 1.39v.062zm8.974-7.891a1.093 1.093 0 00-.327-.317c-.116-.075-.337-.16-.665-.255-.143 0-.408-.007-.797-.02a26.82 26.82 0 00-.766-.021c-.45 0-.675.211-.675.633v6.113c0 .416.058.75.174 1.002.095.245.31.47.644.674v.082h-3.516v-.082c.361-.184.586-.409.674-.674.068-.273.102-.593.102-.961v-6.154c0-.422-.225-.633-.674-.633-.232 0-.477.007-.736.02a272.8 272.8 0 01-.828.02c-.327.096-.549.181-.665.256a1.117 1.117 0 00-.327.317V39.66l2.77.143h2.842l2.77-.143v1.973z" fill="#fff"/><path d="M266.374 44.577l-.021.572c-.109 1.336-.634 2.443-1.574 3.322-.94.872-2.058 1.309-3.353 1.309a5.427 5.427 0 01-1.666-.256l-1.093-1.717c.334.19.681.34 1.042.45.368.102.78.153 1.237.153.45 0 .855-.065 1.216-.194.368-.13.709-.324 1.023-.583.586-.484.93-1.23 1.032-2.239l.041-.643c0-.968-.252-1.793-.757-2.474-.592-.81-1.4-1.216-2.422-1.216-.906 0-1.625.276-2.157.828-.531.551-.797 1.148-.797 1.788v7.738c0 .79.041 1.319.123 1.584.081.273.313.518.695.736v.082h-3.517v-.082c.546-.3.818-.818.818-1.553V41.797c0-.927-.272-1.54-.818-1.84v-.082c.627 0 1.053.014 1.278.04.334 0 .62-.026.859-.08.238-.062.412-.134.521-.216h.041v1.483c.361-.484.876-.86 1.543-1.125a5.18 5.18 0 011.891-.358h.205c.436 0 .852.062 1.247.184.395.116.79.293 1.185.532.716.436 1.282 1.077 1.697 1.922.157.34.276.705.358 1.093.082.382.123.79.123 1.227zM97.73 22.875c0 .651-.12 1.238-.361 1.76a3.96 3.96 0 01-1.025 1.375 7.082 7.082 0 01-3.038 1.64 13.452 13.452 0 01-3.352.445c-.184 0-.414-.012-.687-.036l-.675-.06-1.386-.096L86 24.9l.096.048c.78.394 1.54.699 2.279.916.74.217 1.447.326 2.122.326 1.27 0 2.319-.342 3.147-1.025.827-.683 1.241-1.48 1.241-2.387v-.193c0-.957-.37-1.672-1.109-2.146-.787-.498-1.744-.748-2.87-.748-.457 0-1.096.069-1.916.205v-2.025h.434c.136 0 .261.008.374.024l.65.048c.45 0 .869-.052 1.255-.156a5.007 5.007 0 001.133-.483c.691-.402 1.037-1.02 1.037-1.856 0-.78-.33-1.387-.989-1.82a3.905 3.905 0 00-2.194-.652c-1.182 0-2.424.422-3.725 1.266h-.049l1.013-2.652c.956-.362 2.001-.543 3.135-.543.964 0 1.852.14 2.664.422.812.273 1.47.695 1.977 1.266.506.563.76 1.27.76 2.122v.145a3 3 0 01-.712 1.977c-.506.627-1.266 1.097-2.278 1.41a6.775 6.775 0 012.941 1.314c.877.676 1.315 1.66 1.315 2.954v.217zm15.866 6.33l-.048.048c-1.455-1.005-2.881-1.507-4.28-1.507h-.193l-1.013-.012c-.594-.008-1.273-.016-2.037-.024-.755 0-1.583-.004-2.484-.012h-.192c-1.391 0-2.817.502-4.28 1.507l-.049-.049 1.339-3.146 1.254-.543c.811-.9 1.503-3.07 2.073-6.51.346-2.106.519-3.573.519-4.4v-.242a1.03 1.03 0 00-.025-.253l-.048-.687c0-.273-.024-.478-.072-.615-.064-.136-.197-.301-.398-.494a4.747 4.747 0 00-.422-.362 15.69 15.69 0 00-.591-.458l.049-.096c.072.032.172.068.301.108.137.032.293.06.47.085l.398-.049h7.897v.049c-.507.184-.82.514-.941.988-.112.474-.168 1.11-.168 1.905l.048 9.163c0 1.31.369 2.097 1.109 2.363h.446l1.338 3.243zm-5.437-3.533V13.423l-.518-.096-.567-.048h-1.338c-.322 0-.543.068-.663.204a1.165 1.165 0 00-.242.531c0 .9-.04 1.756-.12 2.568-.08.804-.193 1.644-.338 2.52a60.65 60.65 0 01-.385 2.073c-.37 1.913-.913 3.396-1.628 4.449l5.799.048zm24.341-6.076c0 .94-.165 1.869-.494 2.785a8.511 8.511 0 01-1.785 2.87 8.79 8.79 0 01-2.833 2 9.844 9.844 0 01-1.784.627 7.683 7.683 0 01-1.845.217h-.156a11.36 11.36 0 01-1.917-.156 8.422 8.422 0 01-1.736-.495c-1.174-.45-2.178-1.077-3.014-1.88-.836-.804-1.471-1.688-1.905-2.653a9.764 9.764 0 01-.519-1.519 7.072 7.072 0 01-.168-1.555c.016-.008.032-.032.048-.072 0-.684.06-1.318.181-1.905a8.63 8.63 0 01.566-1.724 8.072 8.072 0 011.953-2.737 8.61 8.61 0 012.834-1.748c.53-.2 1.081-.358 1.651-.47a8.618 8.618 0 011.76-.181h.338c1.479 0 2.853.305 4.123.916a8.086 8.086 0 013.34 2.87c.426.65.759 1.35 1 2.097.241.74.362 1.511.362 2.315v.398zm-2.797.193c0-.306-.016-.583-.048-.832-.177-1.744-.836-3.227-1.977-4.449-1.085-1.149-2.468-1.724-4.148-1.724h-.193c-.924 0-1.768.17-2.531.507a5.882 5.882 0 00-1.99 1.422c-1.069 1.142-1.603 2.669-1.603 4.582v.35c0 .45.052.891.157 1.325.104.426.257.864.458 1.314.362.836.864 1.58 1.507 2.23a6.178 6.178 0 002.146 1.423 5.12 5.12 0 001.929.374h.301a.659.659 0 01.145-.024 5.61 5.61 0 001.917-.313 5.986 5.986 0 001.615-.917 5.925 5.925 0 001.893-2.748 7.791 7.791 0 00.422-2.52zm16.155-3.894c0 1.286-.478 2.306-1.435 3.062-1.004.796-2.041 1.262-3.11 1.398a5.97 5.97 0 00-.965.109c-.345 0-.659-.036-.94-.108a4.789 4.789 0 01-.832-.338c1.109 0 2.122-.35 3.038-1.049.925-.7 1.387-1.6 1.387-2.7v-.06c0-1.03-.322-1.781-.965-2.255-.643-.482-1.491-.724-2.544-.724a9.97 9.97 0 00-1.711.145V25.13c0 .61.096 1.105.289 1.483.193.377.518.707.976.988l.049.097h-4.919V27.6c.747-.313 1.121-1.105 1.121-2.375v-11.14c0-1.398-.374-2.262-1.121-2.592v-.048h5.98c1.583 0 2.925.346 4.026 1.037.539.345.953.792 1.242 1.338.289.539.434 1.162.434 1.869v.205zm18.735 3.701c0 .94-.165 1.869-.494 2.785a8.511 8.511 0 01-1.785 2.87 8.79 8.79 0 01-2.833 2 9.817 9.817 0 01-1.784.627 7.683 7.683 0 01-1.845.217h-.156a11.36 11.36 0 01-1.917-.156 8.422 8.422 0 01-1.736-.495c-1.174-.45-2.178-1.077-3.014-1.88-.836-.804-1.471-1.688-1.905-2.653a9.653 9.653 0 01-.518-1.519 7.012 7.012 0 01-.169-1.555c.016-.008.032-.032.048-.072 0-.684.06-1.318.181-1.905a8.63 8.63 0 01.566-1.724 8.088 8.088 0 011.954-2.737 8.596 8.596 0 012.833-1.748c.53-.2 1.081-.358 1.651-.47a8.62 8.62 0 011.761-.181h.337c1.479 0 2.853.305 4.123.916a8.086 8.086 0 013.34 2.87c.426.65.759 1.35 1 2.097.242.74.362 1.511.362 2.315v.398zm-2.797.193c0-.306-.016-.583-.048-.832-.177-1.744-.836-3.227-1.977-4.449-1.085-1.149-2.468-1.724-4.148-1.724h-.192c-.925 0-1.769.17-2.532.507a5.868 5.868 0 00-1.989 1.422c-1.069 1.142-1.604 2.669-1.604 4.582v.35c0 .45.052.891.157 1.325.104.426.257.864.458 1.314.362.836.864 1.58 1.507 2.23a6.178 6.178 0 002.146 1.423 5.12 5.12 0 001.929.374h.301a.668.668 0 01.145-.024 5.61 5.61 0 001.917-.313 5.97 5.97 0 001.615-.917 5.925 5.925 0 001.893-2.748 7.791 7.791 0 00.422-2.52zm16.903 2.701l-.025.433c-.144 1.536-.843 2.717-2.097 3.545-1.246.82-2.845 1.23-4.799 1.23h-5.702c.434-.338.727-.643.88-.917.153-.281.229-.84.229-1.675V13.99c0-1.278-.37-2.126-1.109-2.544h6.076c1.391 0 2.564.297 3.521.892.956.595 1.434 1.451 1.434 2.568v.145c0 1.503-.812 2.548-2.435 3.134.683.129 1.314.37 1.893.724.554.33.992.699 1.314 1.109.153.2.281.414.386.639.112.217.205.466.277.747.104.402.157.764.157 1.085zm-4.232-7.041V15.4c0-.851-.309-1.495-.928-1.928a3.291 3.291 0 00-1.857-.543h-.253l-1.676.193v4.87h.916c1.021 0 1.909-.225 2.665-.675.755-.458 1.133-1.08 1.133-1.868zm1.507 7.426c0-1.06-.442-1.909-1.326-2.544a5.026 5.026 0 00-2.821-.831h-.241l-1.833.096v6.124l2.146.193.518.024c.989 0 1.805-.253 2.448-.76.739-.594 1.109-1.361 1.109-2.302zm16.842-.385v.168c0 .064-.008.153-.024.265-.145 1.536-.844 2.717-2.098 3.545-1.253.82-2.849 1.23-4.786 1.23h-5.702c.45-.362.747-.68.892-.953.144-.273.217-.82.217-1.64V14.038c0-1.366-.37-2.214-1.109-2.544v-.048h4.738v.048c-.74.314-1.11 1.162-1.11 2.544v.446l.049 3.508h2.242c1.286 0 2.174.065 2.664.193a5.668 5.668 0 011.869.712c.563.337 1.013.711 1.35 1.12.282.379.503.84.664 1.387.096.378.144.74.144 1.085zm-2.712.385c0-1.053-.446-1.9-1.339-2.544a4.97 4.97 0 00-2.809-.831h-.253l-1.82.096v6.124l2.146.193.518.024c.981 0 1.796-.253 2.447-.76.74-.594 1.11-1.361 1.11-2.302zm16.143 1.579l-1.11 3.244h-10.271V27.6c.739-.265 1.109-1.057 1.109-2.375V14.388c0-.82-.056-1.459-.169-1.917-.104-.458-.418-.784-.94-.977v-.048h7.908c.169 0 .298.016.386.048.394-.064.651-.128.772-.193h.048v2.882h-.048c-.587-.635-1.507-.953-2.761-.953h-1.616l-.566.049-.519.096v4.617h2.327c.274 0 .47.017.591.049.563-.065.932-.137 1.109-.217h.073v2.64h-.073c-.289-.482-.98-.723-2.073-.723h-1.954v5.883l3.388.29h.217c.065 0 .157.015.277.047.7 0 1.371-.128 2.014-.385a6.647 6.647 0 001.832-1.122h.049zm22.243 0l-1.278 2.894c-.78.297-1.463.494-2.05.59-.586.105-1.189.157-1.808.157h-.241c-1.182 0-2.287-.164-3.315-.494a9.947 9.947 0 01-2.87-1.483 7.067 7.067 0 01-2.073-2.411c-.523-1.013-.784-2.146-.784-3.4l-.024-.639c0-1.495.305-2.87.916-4.123a7.518 7.518 0 013.026-3.34c1.358-.803 2.95-1.205 4.774-1.205 1.326 0 2.809.233 4.449.7v2.784c-1.495-.94-2.978-1.41-4.449-1.41h-.289c-.868 0-1.644.156-2.327.47a4.978 4.978 0 00-1.772 1.362 6.591 6.591 0 00-1.145 1.977 6.773 6.773 0 00-.386 2.315c0 1.157.269 2.287.808 3.388a6.242 6.242 0 002.254 2.544c.956.627 2.082.94 3.376.94h.096c.78 0 1.588-.137 2.423-.41.836-.273 1.708-.675 2.617-1.206h.072zm12.333 0l-1.109 3.244h-10.272V27.6c.74-.265 1.109-1.057 1.109-2.375V14.388c0-.82-.056-1.459-.168-1.917-.105-.458-.418-.784-.941-.977v-.048h7.909c.169 0 .297.016.386.048.394-.064.651-.128.771-.193h.049v2.882h-.049c-.586-.635-1.507-.953-2.76-.953h-1.616l-.567.049-.518.096v4.617h2.327c.273 0 .47.017.591.049.562-.065.932-.137 1.109-.217h.072v2.64h-.072c-.29-.482-.981-.723-2.074-.723h-1.953v5.883l3.388.29h.217c.064 0 .157.015.277.047a5.37 5.37 0 002.013-.385 6.667 6.667 0 001.833-1.122h.048zm22.738 3.196l-.048.048h-4.775V27.6c.643-.217.965-.711.965-1.483v-.627l-.048-.386-1.302-11.26L252.819 28c-.498-.354-.884-.72-1.157-1.097-.306-.378-.595-.888-.868-1.531l-4.895-11.526-1.483 11.333c0 .337-.016.583-.048.735 0 .402.076.748.229 1.037.16.281.39.498.687.651v.097h-4.003V27.6c.692-.538 1.146-1.587 1.363-3.146l1.386-10.465.072-.494.049-.29.024-.373c0-.603-.29-1.05-.868-1.339v-.048h4.352c.064.434.153.788.265 1.061l4.69 10.935 4.208-10.682c.144-.33.241-.767.289-1.314h4.268v.048a1.08 1.08 0 00-.567.482c-.129.226-.193.527-.193.905.032.088.048.253.048.494l1.604 11.755c.08.731.205 1.258.374 1.579.144.33.45.643.916.94zm14.226-5.16v.168c0 .064-.008.153-.024.265-.145 1.536-.844 2.717-2.098 3.545-1.254.82-2.849 1.23-4.786 1.23h-5.703c.45-.362.748-.68.892-.953.145-.273.217-.82.217-1.64V14.038c0-1.366-.369-2.214-1.109-2.544v-.048h4.738v.048c-.739.314-1.109 1.162-1.109 2.544v.446l.048 3.508h2.243c1.286 0 2.174.065 2.664.193a5.685 5.685 0 011.869.712c.562.337 1.013.711 1.35 1.12.281.379.502.84.663 1.387.097.378.145.74.145 1.085zm-2.713.385c0-1.053-.446-1.9-1.338-2.544a4.97 4.97 0 00-2.809-.831h-.253l-1.821.096v6.124l2.146.193.519.024c.98 0 1.796-.253 2.447-.76.74-.594 1.109-1.361 1.109-2.302zm20.688 4.823h-4.388V27.6c.257-.185.47-.366.639-.542.177-.177.309-.362.398-.555.177-.354.265-.952.265-1.796v-9.802l-8.837 11.236c-.482.579-.944 1.045-1.386 1.399-.41.361-1.033.671-1.869.928l.048-14.033c0-.892-.096-1.52-.289-1.88-.185-.362-.527-.716-1.025-1.062v-.048h4.352v.048c-.578.274-.944.655-1.097 1.146-.145.482-.217 1.048-.217 1.7v9.656l9.018-11.393c.506-.602.76-.988.76-1.157h3.628v.048c-.458.298-.795.611-1.012.94-.193.354-.29.973-.29 1.857v10.417c0 .811.089 1.426.266 1.844.176.418.522.768 1.036 1.05v.096zM7.416 18.177c.998-1.778-.303-1.952-.78-3.036-.738 1.821-.477 2.255.78 3.036zm4.337-1.822c-.78-1.821-1.951-.607-3.253-.954 1.215 1.822 2.733 2.125 3.253.954zm-1.084 3.86c.824-.78.997-1.735.304-2.992-1.128 1.258-1.388 2.255-.304 2.992zm1.518-5.725c.564-3.47-1.691-2.255-2.515-3.426-.304 2.516.477 3.73 2.515 3.427zm1.213-3.035c.218-1.995-1.083-2.039-1.994-2.863-.174 2.039.564 2.863 1.995 2.863zM5.508 34.657c-.13-1.04-.78-1.517-1.908-1.474.347 1.17.954 1.691 1.908 1.474zM7.33 21.43c-.825-1.865-2.17-1.258-3.6-.954.997 1.56 2.211 2.125 3.6.954zm8.457-12.751c-1.518.434-2.386 1.17-1.779 2.515 2.126.174 1.041-1.04 1.779-2.515zM2.776 29.583c-.13 1.778.52 2.69 2.038 2.602.217-2.125-1.17-2.038-2.038-2.602zm1.821-2.645c.26-2.43-1.258-2.169-1.778-2.95-.304 2.039.217 2.516 1.778 2.95zM18.216 9.07c.78-2.082-.434-1.779-1.475-2.82-.303 2.082.26 2.95 1.475 2.82zm5.464 1.344c.954.867 1.474-.304 2.168-.434-.78-.694-1.735-.434-2.168.434zm.477-1.562c1.041.39 1.822.174 2.299-.694-.91-.607-1.692-.303-2.299.694zm-1.735 8.111c1.388-.564.65-.955.91-2.039-.997.174-1.3.868-.91 2.039zm2.428.433c-1.387-.347-1.951 0-1.777 1.041.867.304 1.387-.39 1.778-1.04zm1.302-.65c-.737-1.041-1.301-.174-1.908-.26.433.737 1.084.867 1.908.26zM22.292 5.08c.303-.434.043-1.345.434-1.822-1.865.173-2.212 1.214-1.865 2.645.26-.39 1.127-.39 1.43-.824zM4.077 28.542c.13-1.951-1.215-1.388-1.995-1.995-.13 1.822.737 2.212 1.995 1.995zM20.384 6.207c.39-.824.043-1.475-1.084-1.952-.174.998.043 1.735 1.084 1.952zm2.602 3.946c.824-.52 1.084-1.084.607-1.691-.868.39-.998.998-.607 1.691zm-7.2.521c.868.39 1.778.91 2.169-.52-.477-.694-1.215-.478-2.169.52zm7.72 2.906c0 .78.607 1.127 1.258 1.17.477-.043.867-.26 1.128-.693.303-.91.043-1.475-.477-1.778-.347-.174-.52.303-.824.216-.738-.173-.998.174-1.085 1.085zm-5.204 32.44c-.65.044-1.04.607-.997 1.778.086 1.432.563 1.995 1.734 2.125.868.087 1.909-.433 2.299-1.864.043-.434 0-.781-.087-1.085.217-.216.304-.477.217-.78-.347-.087-.564 0-.737.26-.304-.13-.694-.173-1.258-.087-.39.13-.65-.347-1.171-.347zm3.904.65c-.39.998 0 1.736 1.257 2.17.217-1.215-.086-2.04-1.257-2.17zm.433-3.252c.043-.694-.304-1.127-1.301-1.127.217.737.65 1.127 1.301 1.127zm-1.518 1.648c1.345-.303.434-1.17.26-1.778-.26.607-1.17.564-.26 1.778zm4.337.824c-.607-.477-1.127-.39-1.604.434.91.303 1.474.173 1.604-.434zm-5.898-1.518c-.044.694.607 1.388 1.214 1.041.043-.997-.737-.867-1.214-1.04zm-6.68-6.982c-.563.607-.607 1.214-.086 1.908.65-.65.694-1.301.087-1.908zm.912 3.34c-.477-.955-1.041-1.258-1.735-.651-.13 1.17.824.694 1.735.65zm-6.029-3.254c-.564 1.085-.26 1.909.78 2.342.521-1.04-.086-1.387-.78-2.342zM26.109 46.8c-.434.174-.52.651-.304 1.432.78-.564.78-.997.304-1.431zM1.908 39.558c.044 0 .087 0 .087-.043-.173.303-.26.78-.26 1.388.087 1.43.564 1.995 1.735 2.125.867.087 1.908-.434 2.298-1.865.13-1.258-.39-1.952-1.865-1.692-.39.13-.65-.347-1.127-.39.26-.217.477-.52.607-.867-.91-.26-1.475.086-1.475 1.344zm4.858 2.689c-.824-.043-1.128.78-.954 2.516 1.127-.608 1.43-1.432.954-2.516zm9.454 4.207c.565-.65.565-1.214-.086-1.648-1.128.694-.564 1.084.087 1.648zm-5.031-6.809c.65.087.998-.434 1.04-1.301-.866.217-1.17.65-1.04 1.3zm-8.196-2.039c-.217-.91-.998-1.214-2.256-.91.781 1.214.564 1.518 2.256.91zm.52-1.734c.26-1.128-.52-1.692-1.995-1.865.26 1.17.303 2.168 1.995 1.865zm8.11 11.536c1.04-.173 1.735-.737 1.995-1.778-1.344-.217-1.952.434-1.995 1.778zm-3.6-4.337c1.171.607 1.952.434 2.342-.564-.694-.607-1.474-.477-2.342.564zm6.939 5.552c.781-.564.998-1.215.564-1.865-1.17-.087-1.344.52-.564 1.864zm-4.336-2.169c.91-1.431 1.04-2.472.216-3.036-1.43.737-1.3 1.822-.216 3.036zm46.882-10.582c1.692.26 1.735-.694 1.995-1.865-1.431.217-2.255.78-1.995 1.865zM47.056 11.238c.564-1.345-.26-2.082-1.778-2.516.694 1.431-.39 2.646 1.778 2.516zM44.28 6.25c-1.04 1.041-2.255.738-1.474 2.82 1.214.13 1.778-.738 1.474-2.82zm5.335 2.299c-.911.867-2.212.867-1.995 2.862 1.43.044 2.168-.78 1.995-2.862zm-6.549 1.561c.434 1.431 1.345.91 2.169.52-.954-.954-1.691-1.17-2.169-.52zm5.768 4.38c2.039.304 2.82-.91 2.516-3.426-.824 1.171-3.08 0-2.516 3.427zm1.518 5.725c1.084-.737.824-1.778-.303-2.992-.694 1.258-.52 2.255.303 2.992zM38.035 10.153c.39-.737.26-1.3-.607-1.691-.477.65-.217 1.214.607 1.691zm.565 6.81c.39-1.171.086-1.822-.912-2.039.26 1.041-.477 1.431.911 2.039zm3.165-12.751c-1.128.477-1.475 1.127-1.084 1.951.997-.173 1.214-.91 1.084-1.951zM40.16 5.947c.347-1.432 0-2.516-1.865-2.646.39.477.087 1.388.434 1.822.304.39 1.215.39 1.431.824zm16.264 20.991c1.562-.434 2.082-.911 1.778-2.95-.52.781-2.038.52-1.778 2.95zm-2.169 15.309c-.477 1.084-.173 1.908.955 2.516.173-1.735-.13-2.56-.955-2.516zm-4.987-25.892c.52 1.171 2.038.868 3.253-.954-1.301.39-2.472-.824-3.253.954zm8.978 13.228c-.868.564-2.256.52-2.039 2.602 1.518.087 2.212-.867 2.039-2.602zm2.038 7.113c-1.258-.304-2.038 0-2.299.91 1.735.608 1.518.304 2.299-.91zm-1.171 2.862c0-1.258-.608-1.605-1.518-1.3.303.65.78 1.127 1.518 1.3zm-3.6-4.901c.954.217 1.562-.303 1.908-1.474-1.127-.044-1.821.434-1.908 1.474zm1.431-6.115c1.258.217 2.125-.173 1.995-1.995-.78.607-2.125.087-1.995 1.995zm-3.253-7.112c1.388 1.214 2.603.607 3.6-.954-1.388-.304-2.776-.911-3.6.954zM27.497 7.074c.65-.217.997-.65.78-1.474-.26-.564-.737-.65-1.127-.477-.608 0-.868.347-.868.954.087.737.607 1.127 1.215.997zm8.673 10.322c.434.65.911 1.345 1.779 1.041.13-1.04-.434-1.431-1.779-1.04zm18.216-2.255c-.477 1.084-1.778 1.258-.78 3.036 1.257-.78 1.517-1.215.78-3.036zM29.1 2.13c-.997.13-1.474.694-1.3 1.692 1.474.086.997-1.085 1.3-1.692zm4.078 2.472c-.91-1.127-3.99-3.34-4.077-.434-.087 2.95 2.732.304 4.077.434zm-.26 6.506c.347-.607-.087-1.041-1.345-1.258.174.694.607 1.518 1.345 1.258zm1.561-2.776c0-.607-.217-.997-.867-.954-.39-.174-.868-.087-1.128.477-.217.824.13 1.258.78 1.475.651.086 1.172-.304 1.215-.998zm-3.383-.824c1.128.52 1.822-.737 2.299-1.778-1.605-.087-2.516.433-2.299 1.778z" fill="#fff"/><path d="M30.402 6.987c.564-.52.347-1.127-.13-1.43-.52.26-.65.997.13 1.43zm-2.255 8.718c.174-.91-.433-1.605-1.518-2.125-.173 1.214.304 1.951 1.518 2.125zm8.673.78c-.65.087-1.214-.78-1.907.26.824.608 1.43.478 1.908-.26zM25.805 7.118c.867-2.472-1.388-2.169-2.039-3.253-.173 2.168.39 3.426 2.039 3.253zm0-3.253c.65-.39.217-.954 0-1.865-.477.607-.867 1.171 0 1.865zm1.128 6.419c.043 1.214.477 1.908 1.3 2.038.087-.867-.346-1.561-1.3-2.038zm10.408.13c-.433-.868-1.388-1.171-2.168-.434.694.173 1.214 1.301 2.168.434zm-.867 2.081c-.347.087-.52-.39-.824-.216-.52.303-.78.867-.477 1.778.26.434.607.65 1.128.694.65-.044 1.258-.39 1.258-1.171-.13-.911-.39-1.258-1.085-1.085zM35.26 7.118c1.604.173 2.168-1.085 2.038-3.253-.694 1.084-2.95.78-2.039 3.253zm1.604 1.734c-.607-1.04-1.344-1.3-2.299-.693.434.867 1.215 1.084 2.299.693zm-5.811 5.075c-.044-.911-.694-1.258-1.648-1.215.303.911.824 1.345 1.648 1.215zM35.26 3.865c.824-.694.433-1.258 0-1.865-.26.91-.694 1.475 0 1.865zm21.424 39.163c1.128.217 1.692-.13 2.342-.911.52-1.17.477-2.212-.217-2.602-.563-.39-1.127-.044-1.648-.087-.477 0-1.084-.347-1.474.044-.564.52-.607.954-.52 1.821.043.998.563 1.475 1.517 1.735zm-24.027-31.27c-1.17-.694-1.344.13-1.995.52 1.041.695 1.822.434 1.995-.52zm2.083-5.941c.173-.998-.305-1.562-1.302-1.692.304.607-.174 1.778 1.301 1.692zm-.348 17.868c.694.564 1.301.607 1.822.087-.564-.694-1.171-.738-1.822-.087zM16.35 41.466c-.39-1.214-1.17-1.648-2.428-1.084.824.347.303 1.605 2.429 1.084zm31.617-21.554c.346-.824.043-1.388-.738-1.735-.13.694-.043 1.344.738 1.735zm1.127 7.893c-.347 1.561.044 2.212.954 2.299.824-.781.347-1.562-.954-2.299zm-1.821-1.952c-.347 1.041 0 1.779 1.214 2.125.044-1.257-.39-1.908-1.214-2.125zm5.942 1.562c.26 1.04.91 1.691 1.995 1.865 0-1.518-.607-2.212-1.995-1.865zM47.23 40.73c.91.043 1.908.52 1.734-.651-.694-.608-1.257-.304-1.734.65zm6.766-9.022c-.694-.433-1.345-.303-1.952.347.737.52 1.388.477 1.952-.347zm-1.476 8.11c1.042-.433 1.345-1.214.782-2.342-.738.955-1.345 1.302-.781 2.342zm-8.37-7.763c-.043-.65.651-1.865-.867-2.212-.867.738-.39 1.475.867 2.212zm-8.24-11.536c.087 1.04-.867 1.605.738 2.429 1.084-1.041.433-1.952-.738-2.43zm6.853 11.449c0-.693-.39-.78-.78-1.04-.218.433.086 1.04.78 1.04zm-4.814-5.594c-.694 1.388.043 2.082 1.474 2.472.087-1.735-.39-2.559-1.474-2.472zm.346-1.041c.39.737 1.085.65 1.995-.13-1.127-.347-1.864-.347-1.995.13zm2.776.217c1.258.26 1.995.043 2.082-.824-.824-.65-1.518-.304-2.082.824zm2.255-3.817c.217-.78.13-1.604-.607-1.865-.217-.086-.434.217-.694.174-.347 0-.433-.174-.694-.044-.694.304-.78.825-.65 1.301.173.694.477 1.085 1.127 1.258.564.174 1.388-.303 1.518-.824zm-8.977 6.202c1.171-1.127 1.605-2.082.91-2.776-1.604.087-1.474 1.302-.91 2.776zm-.39 2.342c-.695-.65-1.172-.26-1.475.824.867 0 1.474-.217 1.474-.824zm1.474 3.947c.564-.304.694-.78.434-1.388-.564.26-.824.65-.434 1.388zm-.477.13c.086-.824-.347-1.171-1.432-.954.304.737.738 1.127 1.432.954zm-2.299-5.118c.824.52 1.518.174 2.082-.78-1.04-.304-1.865-.217-2.082.78zm.087-2.732c1.128-.694 1.128-1.605.39-2.646-.477 1.215-.997 1.865-.39 2.646zm15.136 2.038c-1.344-.694-1.128.044-1.605.39.564.781 1.085.478 1.605-.39zM39.9 45.066c.868-1.214 0-1.17-.26-1.778-.13.607-1.04 1.475.26 1.778zm-1.518-1.648c.65 0 1.084-.347 1.301-1.127-.954 0-1.344.39-1.3 1.127zm7.676 5.204c.781-1.3.608-1.951-.563-1.864-.434.65-.217 1.257.563 1.864zm-1.17-3.859c-.651.477-.651 1.04-.087 1.648.65-.52 1.214-.911.087-1.648zm-3.427-.391c-.477.217-1.258.087-1.214 1.041.564.347 1.258-.347 1.214-1.04zm-1.908 1.865c-.13.564.174.91.911 1.084-.043-.867-.304-1.214-.91-1.084zm7.85-.564c.217 1.041.911 1.562 1.995 1.779-.043-1.388-.65-2.039-1.995-1.779zm-11.84.217c.173.607.737.78 1.605.434-.477-.868-.998-.954-1.605-.434zm1.214 2.429c.217-.78.087-1.258-.303-1.431-.52.39-.477.867.303 1.43zm.781.521c1.258-.434 1.648-1.172 1.258-2.17-1.171.13-1.475.955-1.258 2.17zm9.021-5.682c.477 0 .607-.39.434-1.215-.868.478-.955.868-.434 1.215zm.087-3.643c-.607-.52-.26-1.822-1.865-1.562-.26 1.258.607 1.605 1.865 1.562zm1.474-2.125c-.607.607-.563 1.214.087 1.908.52-.65.477-1.301-.086-1.908zm-3.47 4.076c2.17.52 1.649-.737 2.43-1.084-1.258-.564-2.039-.13-2.43 1.084zm-.433-3.339c-.087-.65-.564-.954-1.214-.78l-.78-.13c-.565.216-.738.65-.521 1.344.216.563.607.954 1.214.954.694.13 1.345-.52 1.301-1.388zm5.942 5.248c-.868.564-.694 1.648.216 3.036 1.085-1.171 1.215-2.256-.216-3.036zm-.347-3.73c.173-.65-.174-1.084-1.041-1.301.043.91.347 1.388 1.04 1.3zm3.166 3.426c-.868-1.04-1.648-1.17-2.342-.564.39.998 1.17 1.171 2.342.564zm-15.179-2.385c.65-.78-.044-1.301-.52-1.952-.695 1.171-.434 1.735.52 1.952zm2.558.607c.65.304 1.388.217 2.125-.347-1.084-.52-1.822-.477-2.125.347zm0-3.296c.607-.39.868-.564.52-1.475-.78.477-.91.955-.52 1.475zm6.245-7.547c.087-.737-.173-1.084-.78-1.084-.26.694 0 1.041.78 1.085zm-28.884-.607c-1.474.347-.824 1.518-.867 2.212 1.258-.737 1.735-1.474.867-2.212zm-5.204-1.864c1.214-.304 1.561-1.041 1.214-2.126-.824.217-1.258.868-1.214 2.125zM5.812 29.28c1.084-.174 1.734-.868 1.995-1.865-1.388-.347-1.995.347-1.995 1.865zm7.329-.738c.52.868 1.041 1.171 1.605.39-.477-.346-.26-1.127-1.605-.39zm5.899 2.386c-.39.216-.738.347-.781 1.04.694 0 .997-.607.78-1.04zm-4.641-.478c.78-.043 1.04-.39.78-1.084-.607-.043-.867.304-.78 1.085zm-.131-7.763c-.433.824-.303 1.518.434 2.082.304-1.04.174-1.735-.434-2.082zm5.335-2.689c-.26-.086-.347.044-.694.044-.26.043-.434-.26-.694-.174-.694.26-.824 1.085-.607 1.865.13.52.954.998 1.475.868.65-.217.954-.608 1.127-1.258.217-.52.087-1.041-.607-1.345zm-3.253-2.341c-.563.13-.997.39-1.17 1.214.867-.087 1.17-.564 1.17-1.214zm-2.775 2.558c.564.824 1.3.911 2.212.087-.738-.91-1.518-.997-2.212-.087zm-.521-.303c.781-.39.824-1.041.738-1.735-.781.347-1.085.91-.738 1.735zm5.726 17.304l-.781.13c-.607-.173-1.128.087-1.215.781-.043.867.608 1.475 1.301 1.388.607-.044.998-.39 1.215-.954.217-.65.043-1.128-.52-1.345zm-4.772 4.728c-.173.824-.043 1.214.434 1.214.52-.347.434-.737-.434-1.215zm6.68-.651c-.347-.824-1.085-.867-2.125-.347.737.52 1.43.607 2.125.347zm-9.715-11.189c.954-.044 1.344-.738.954-2.299-1.301.737-1.778 1.518-.954 2.299zm5.247 7.849c-1.604-.216-1.257 1.041-1.864 1.562 1.257.043 2.125-.304 1.864-1.562zm-7.242-5.898c-.608-.65-1.258-.78-1.952-.347.564.824 1.214.868 1.952.347zm11.146 4.511c-.347.91-.044 1.084.52 1.474.39-.564.26-1.04-.52-1.474zM7.59 25.463c-.174 1.648 1.17 2.299 2.168 2.168 1.084-.216 1.648-.693 1.518-1.821-.174-2.646-1.475-1.301-2.125-1.214-.52.26-1.215-.347-1.562.867zm16.133 13.315c-.477.607-1.17 1.17-.52 1.951.954-.26 1.214-.824.52-1.951zM46.319 24.77c.737-.565.867-1.302.433-2.083-.563.347-.737 1.041-.433 2.082zm-18.432-6.073c-.564 1.128-.39 1.865.693 2.169.217-.954-.086-1.648-.693-2.169zm-6.68-.91c-.26-.911-.997-1.085-2.038-.955.52 1.041 1.214 1.302 2.038.955zm11.233 3.079c1.085-.304 1.258-1.084.694-2.169-.607.52-.91 1.215-.694 2.169zm-6.115 17.608c.954.043 1.605-.217 1.605-1.214-.607-.217-1.128.216-1.605 1.214zm2.039-1.084c-.39.433-.26.867.39 1.474.39-1.084-.13-1.084-.39-1.474zm19.082-17.175c-.694-.91-1.431-.824-2.212.087.911.824 1.605.737 2.212-.087zm-2.776-2.558c0 .65.304 1.127 1.172 1.214-.174-.867-.607-1.084-1.171-1.214zm-14.441 1.301c1.214-.174 1.691-.911 1.518-2.125-1.085.52-1.692 1.214-1.518 2.125zm-.954 16.003c.52-1.475.65-2.689-.911-2.776-.694.694-.26 1.648.91 2.776zm10.538-17.174c.781.347 1.475.086 2.039-.954-1.041-.174-1.778.043-2.038.954zM25.155 32.836c-.217.607-.087 1.084.433 1.388.39-.738.13-1.128-.433-1.388zm.346-4.944c.564.954 1.258 1.3 2.082.78-.26-.997-1.041-1.127-2.082-.78zm-1.127-4.901c1.604-.824.65-1.388.737-2.429-1.128.434-1.822 1.345-.737 2.429zm-2.776 5.855c1.431-.39 2.168-1.084 1.475-2.472-1.085-.087-1.562.737-1.475 2.472zm-.868-3.643c.911.824 1.605.91 1.995.13-.13-.477-.867-.477-1.995-.13zm4.078-1.431c.52.52 1.127.477 1.821-.087-.65-.65-1.258-.607-1.821.087zm2.602-1.215c-.738 1.041-.738 1.952.39 2.646.607-.78.13-1.431-.39-2.646zm.086 10.799c-1.084-.217-1.561.174-1.431.954.694.217 1.127-.173 1.431-.954zm-9.628-8.63c.087.867.824 1.127 2.082.824-.564-1.128-1.258-1.475-2.082-.824zm9.195 6.592c-.304-1.084-.781-1.475-1.475-.824-.043.65.564.824 1.475.824z" fill="#fff"/><path d="M48.097 60.636c-.173 0-.347-.044-.477-.044-5.551-.78-5.898-1.43-10.886-2.949-.434 0-1.258-.39-1.431-.78-.91-.738-.91-1.778-.564-2.95.174-2.168.824-4.727-.043-6.115-.304-.78-1.605-2.211-1.345-3.035.13-.52.13-.868.65-1.388.174-.087.608-.911.782-1.735.26-.087.607-.13 1.084-.087.564.174 1.04.52 1.3 1.041.348.607.478 1.258.435 1.865-.087.39-.26.564-.52.607-.174-.087-.174-.26 0-.564-.088 0-.174.13-.261.217-.087-.477-.26-.824-.78-.824 0 .65.216.824.78.868-.043.086-.087.216-.043.26.26.347.607.39.824.13.347-.477.39-.78.39-1.431.217.78 1.04 2.212 1.518 2.342.26.086.434 0 .564-.13.13-.174 0-.694-.217-.738 0 .26.217.738-.174.65-.433-.13-.867-.953-1.214-1.864-.26-.39-.477-.954-.564-1.778.26-.304.824-.26 1.301-.347l1.518.39c.694.087 1.475.607 1.865 1.215.39.433.607.867.607 1.3-.043.347-.347.738-.78.998-.217-.13-.434-.303-.738-.303-.65.043-1.04.607-.997 1.778.087 1.43.564 1.995 1.735 2.125.867.087 1.908-.434 2.298-1.865.13-1.258-.347-1.908-1.735-1.692.174-.086.304-.216.434-.346.304-.348.39-.868.13-1.345-.217-.39-.39-.694-.564-1.084l1.388.607 1.301.867c.477.304.868.738 1.215 1.215.216.433-.217.39-.608.433.087.26.26.39.478.304.39-.13.563-.434.477-.78-.087-.26-.217-.521-.52-.738l-.955-.78c.13-.218.737 0 1.128-.13.347-.088.78-.218 1.17-.174.174.087.304.173.304.39 0 .217-.39.174-.564-.173-.13.216-.043.563.217.65.26.087.434 0 .608-.347.086-.217.173-.477-.087-.694l1.691-1.17c.564-.391 1.171-.868 1.692-1.432.303-.347.78-.65 1.3-.867.304-.087.565-.13.781-.044.174.13.304.26.304.477 0 .304 0 .434-.26.608-.26.217-.347.043-.347-.347-.39.52-.39.78 0 .78.52-.043.867-.347.954-.867.087-.52-.13-.954-.694-1.214-.694-.174-1.518.216-2.429.997l-1.214.954c.347-.607.477-1.127.217-1.474-.39-.39-.824-.347-1.215-.044-.217.174-.086.434.304.738-.087-.304-.087-.694.347-.608.26.087.39.217.347.608-.043.346-.607 1.17-1.041 1.517-.824.868-1.691 1.128-2.559 1.172-.65 0-1.214.043-1.821-.044-.564-.173-1.215-.52-1.562-1.17-.086-.348.087-.565.781-.565.304 0 .477.087.434.347 0 .13-.217.13-.347.174.173.26.39.217.607.043.173-.13.043-.564-.217-.694a1.265 1.265 0 00-.39-.086c.26-.478.217-.911-.174-1.388-.39.477-.303.954.087 1.344-.13 0-.26 0-.39.044l-1.215.26c-.91.217-2.081.086-2.515-.434.824-.607 1.431-1.171 1.474-1.691 0-.911-.346-1.258-1.084-1.301.65.39.868 1.04.564 1.517-.304.434-.694.738-1.431 1.041a4.212 4.212 0 01-1.605.304c-.867.043-1.561-.217-2.298-.65.91-1.128 1.474-2.43 1.778-3.947.26-.304.564-.477.954-.564.564-.174.954-.217 1.258-.087.216.13.39.26.39.607-.044.304-.217.347-.39.304-.087 0-.174-.087-.217-.304-.347.174-.347.304-.217.52.217.13.434.174.65 0 .26-.216.347-.563.26-.91-.13-.564-.91-.65-.91-.867.043-.304.39-.52.52-.868.13-.433.26-.91.087-1.474-.13-.304-.347-.52-.694-.608-.347-.043-.564.087-.824.477-.13.217 0 .478.087.694.173.13.347.174.564 0-.217-.043-.434-.173-.39-.39.086-.26.216-.347.433-.303.564 0 .65.433.52 1.084-.13.607-.477.997-.954 1.3l-1.127.348.217-2.472c.433-1.215.867-1.735 1.3-1.605.651.347 1.302.954 2.039 1.952.087.217.043.65-.217.737-.13.043-.26 0-.39-.087-.13-.086-.044-.477.043-.65-.303.086-.39.347-.26.737.13.26.347.39.694.304.303-.13.477-.39.564-.825l.217-.086c.433.217.867.39 1.3.52l-.043 1.605c-.043.26-.303.39-.737.477-.347.043-.477-.043-.477-.217.043-.217.173-.303.347-.26-.044-.174-.087-.26-.304-.26-.26.043-.477.26-.39.65.087.26.26.434.65.477.39 0 .781-.173 1.041-.477.174.304.39.65.608.911.303.39.65.564 1.257.564.39-.087.65-.304.65-.65.044-.478-.173-.695-.563-.695-.217.044-.347.174-.347.434.26-.13.52-.087.564.13 0 .304-.217.52-.477.477-.434-.087-.694-.39-.868-.65-.26-.39-.39-.868-.39-1.431 0-.39.044-.694.174-.998h.173c.867.13 1.692.39 2.559.39 1.214-.086 1.691.044 2.559.39.563.26.997.608.954 1.128-.044.304-.304.52-.694.694-.477.174-.694.13-.694-.043 0-.217.13-.347.477-.434-.13-.217-.303-.26-.52-.217-.304.044-.434.52-.26.824.216.304.693.347 1.214.217.434-.13.78-.39.997-.91.174-.608-.043-1.215-1.04-1.779.737-.087 1.517.477 2.255 1.345.26.433.39.954.433 1.474.044.564-.173.737-.563.607-.174-.043 0-.39.043-.563-.52.086-.65.563-.477.824.173.26.65.39 1.17-.087.434-.477.521-1.084.348-1.822l2.255 1.952a2.72 2.72 0 001.431.52c.564 0 1.041-.173 1.431-.65.26-.26.26-.607.174-.998-.13-.52-.52-.824-.91-.737-.391.044-.435.304-.305.737.13-.086.13-.347.347-.303.39.043.608.303.52.78-.086.347-.433.651-1.04.651-.694-.043-1.214-.304-1.648-.78l-1.605-1.562c.347-.087.738-.304 1.128-.434.347-.13.737-.13 1.084 0 .304.13.39.347.347.608 0 .346-.434.086-.65 0-.044.477.346.607.824.477.346-.13.303-.955.086-1.171-.26-.304-.52-.477-.867-.564.303-.39.78-1.171.78-1.778 0-.347-.086-.781-.39-.998-.347-.217-.954-.087-1.127.087-.174.173-.217.434-.13.737.086.217.346.217.607.26-.26-.217-.39-.39-.26-.607.26-.26.563-.217.823.044.217.26.087.824-.346 1.518-1.301 1.257-2.43 1.43-2.776 1.214-.607-.564-1.258-.91-1.995-1.258.26-.13.52-.303.52-.564-.043-.347-.217-.607-.607-.607-.477 0-.694.174-.65.607.303-.303.563-.39.78-.13.13.174-.086.347-.563.564-.434.087-.651-.26-1.041-.347-.52-.13-1.475-.087-2.256 0 .998-1.128 1.909-2.038 2.863-2.342.477-.13.824-.043 1.431.26.347.26.65.434.52.738-.13.173-.347.086-.477-.217-.173.217-.13.65.174.694.52 0 .607-.304.65-.608.044-.52-.13-.737-.65-1.04 1.648.173 3.08 0 4.207-.781.824-.65 1.214-1.214 1.127-1.778-.173-.824-.737-1.128-1.43-.911.606.217.78.564.867.998.086.52-.608 1.56-1.692 1.778-.564.086-1.128.13-1.691.043a8.35 8.35 0 00-1.475 0c-.65.087-1.127.087-1.778.13-.087-.303-.304-.564-.607-.52-.39.087-.39.347-.174.694.087-.217.217-.564.304-.26.087.216.043.39-.174.607l-1.951 1.127c.087-.477-.044-.824-.607-.91-.217 0-.39.13-.52.346-.088.217.043.39.303.608-.087-.347-.044-.564.303-.564.304.043.26.39.087.737-.13.347-.737.564-1.778.737-.867.087-1.518.044-2.082-.086-1.127-.564-2.212-1.995-2.385-2.82.607-.693 1.127-1.127 1.951-1.17.304 0 .738.086.781.39.044.173 0 .564-.303.954-.304.347-.825.217-.738 0 .044-.13.347-.477.434-.13.087-.26-.044-.477-.26-.39-.347.086-.52.39-.39.78.13.347.737.347.997.13.434-.433.737-.91.867-1.387.694.26 1.388.346 2.125.26.564-.174.955-.434.824-.998-.13-.564-.433-.694-.824-.694-.347.174-.433.39-.173.65.043-.26.26-.433.477-.216.217.174.26.434-.13.737-.694.347-1.735-.086-2.472-.26-.477-.173-.954-.39-1.431-.303l-.824.26a8.074 8.074 0 012.385-1.562c1.344-.433 2.732-1.127 4.163-2.125.954-.65 1.692-1.561 2.299-2.645.997-.217 1.691-.087 2.168-.087.434.043.738.26.868.65.13.348.173.695-.13.781-.217.087-.39 0-.52-.39-.26.26-.174.65.173.78-.087 0-.174 0-.26.044-.39.13-.694-.39-1.171-.39-.651.043-1.041.607-.998 1.778.087 1.431.564 1.995 1.735 2.125.867.087 1.908-.434 2.299-1.865.086-.997-.174-1.605-.998-1.735.13-.043.26-.217.434-.477 0-.043.043-.043.043-.087.347 1.258 1.214 1.909 2.429 2.039-.174-2.386-.954-2.863-2.386-2.646a1.51 1.51 0 00-.607-1.04c.824-.521 1.431-1.128 1.692-1.866.173-.824-.087-1.3-.824-1.518-.434-.086-.868.13-1.041.738-.044.303.173.39.607.39-.304-.217-.39-.39-.174-.607.217-.174.434-.174.651 0 .477.347.477.65.26.997-.347.564-.91 1.215-1.778 1.432-.737.173-1.431.173-2.125-.044-.434-.087-.13-.997-1.04-1.43-.435-.131-.868 0-1.259.303-.39.433-.347.78 0 1.084.044-.52.174-.867.477-1.041.304-.174.651 0 .998.39.26.347.173 1.215-.217 1.779-.78 1.084-1.474 1.864-2.125 2.255-.694.477-1.518.91-2.299 1.17.26-.607.911-.91.824-1.734-.086-.477-.997-1.084-1.214-1.518-.13-.304.13-.824.477-.737.217.217.174.477 0 .78.39.087.607-.347.52-.737-.13-.39-.65-.477-.997-.26-.39.303-.477.694-.39 1.084-.087-.13-.26-.217-.434-.303-.347.65-.304 1.17.434 1.344.13-.217.217-.434.173-.607.13.173.304.26.434.434-.434.13-.65.346-.737.693-.087.217.13.347.477.39-.044-.13-.26-.216-.13-.346.13-.174.477-.39.65-.217.217.173.217.434.217.694-.13.477-1.518 1.431-2.125 1.735-1.084.52-2.125 1.387-3.08 2.385-.65.26-1.387.824-1.864 1.691l-.781-1.778c-.304-.867-.564-1.778-.477-2.689.173-.694.347-1.084.52-1.17.564-.044.738.086.694.303-.043.173-.173.13-.26.217.087.477.65.39.65-.347 0-.304-.433-.607-.823-.52 0-.218.086-.478.043-.738 0-.39-.217-.607-.477-.607-.39 0-.564.173-.65.607.346-.26.52-.347.693-.087.087.26-.13.694-.347.998-.347.477-.52 1.561-.433 2.559.043.65.303 1.474.65 2.081-.303-.043-.607 0-.867.304-.217.217-.26.737-.174 1.04.174.305.52.305.824.131-.347-.087-.52-.26-.477-.434.044-.26.477-.477.868-.39.26.043.26.867.173 1.084l-.39 1.128.347-.607-.607 1.084-.217 2.385-.434 1.605a2.393 2.393 0 01-.867-1.301c-.044-.26.086-.477.347-.607.216-.13.39-.13.477.043.043.087 0 .26-.044.39.39.044.52-.563.217-.824-.434-.173-.867-.043-1.127.304-.174.217-.304.52-.347.867-.39-.043-.694-.26-1.085-.303a1.69 1.69 0 00-.997.173c-.044-2.559-.044-5.16-.217-7.72-.043-1.344-.174-2.515-.434-3.47.738-1.17 1.562-2.428 2.342-3.122.911-.867 1.995-1.3 3.123-1.3a4.29 4.29 0 012.038.65c.737.477.52 1.127.087 1.17-.13 0-.26-.13-.304-.303-.39.26-.303.607.174.824.607.217 1.084-.477.997-1.128-.086-.737-.693-1.214-1.474-1.604 1.431 0 3.036-.087 4.38-.65 1.041-.478 1.345-1.215 1.388-2.04.737-.216 1.561-.736 2.255-.823.434-.087.78 0 1.041.303.304.39.304.824-.13.868-.13.043-.26-.087-.347-.39-.087.477.043.78.477.78.564-.043.694-.434.564-1.214-.13-.607-.607-.954-1.084-1.085.433-.65.867-1.69.91-2.255.044-.824-.26-1.3-1.084-1.3-.477 0-.737.26-.867.736-.174-.693-.737-.997-1.822-.824-.39.13-.694-.39-1.17-.39-.651.043-1.042.607-.998 1.778.087 1.432.564 1.995 1.735 2.125.867.087 1.908-.433 2.298-1.864 0-.174.044-.348 0-.52.087.13.26.216.52.26-.303-.521-.216-.825.347-.868.348-.043.608.39.608.78-.087.781-.564 1.519-1.171 2.169-.607.434-1.431.65-2.212.737-.39.044-.78-.26-1.128-.216-.52 0-.78.216-.824.65 0 .26.39.434.694.304-.52-.217-.52-.608.13-.608.347.044.65.217.78.868.044.607-.52.997-1.69 1.518-1.215.39-2.56.434-3.86.434a5.52 5.52 0 001.257-1.649 7.152 7.152 0 00.39-1.864c.26-.174.434-.174.564-.087.13.087.217.26.13.477-.13.173-.303.173-.477.087.26.347.608.303.825-.044.173-.303 0-.694-.26-.824-.304-.087-.521-.043-.825.087-.043-.824-.087-1.691-.26-2.602.564-.044 1.258-.304 1.518-.13.304.173.737.65.347 1.084-.13.087-.39 0-.52-.217-.13.304 0 .434.303.477.477.043.607-.217.65-.607.044-.607-.13-.91-.563-1.171l.564-.564c.347-.434.477-.824.477-1.258-.044-.433-.304-.694-.65-.824-.391-.13-.565 0-.738.39-.087.26.043.478.303.608.044-.217 0-.52.13-.607.217-.13.521.086.608.39.087.26-.217.737-.824 1.388-.477.39-1.128.434-1.735.52-.26-1.387-.954-2.905-.998-4.38.044-1.171.825-1.431 1.432-.954.217.26.39.303.347.65 0 .434-.434.26-.694.087.043.434.65.65.91.26.26-.694-.043-1.214-.824-1.561-1.17-.26-1.691.304-1.778 1.475-.13 1.3.954 3.556.824 4.38-.52-1.04-1.257-1.301-1.908-1.171-.26.087-.39.173-.477.52-.13.477.173.911.78.52-.476-.173-.563-.433-.216-.65.303 0 .52.13.78.347.955.78 1.388 1.778 1.475 3.556 0 1.128-.477 2.43-1.171 3.817h-.26c-.998 0-1.735.174-2.516.52a.769.769 0 00-.086-.737c-.217-.26-.39-.303-.738-.217-.26.13-.477.26-.52.694-.044.26.173.52.52.304-.216-.043-.216-.174-.173-.304.13-.303.26-.39.434-.347.216.044.26.26.216.738l.087-.044c-.043.044-.13.044-.173.087-.347.26-1.215 1.084-1.518 1.258-.911.52-1.215.867-2.039 1.691-.086.13-.13.26-.173.39-.043-.043-.043-.13-.087-.173-.91-2.082-1.431-4.033-1.388-5.812.174-1.04 1.041-1.734 2.56-2.081.91-.174 1.387 0 1.083.39-.13.174-.433.13-.737.087.087.26.26.39.52.39.347.043.738-.217.738-.477.043-.52-.26-.78-.694-.737-.564.087-1.214.087-1.648 0 .824-.65 1.691-1.258 2.385-2.125.174-.304.087-.608-.173-.868.13-.303.217-.737.26-1.214-.954.434-1.388 1.128-1.301 2.038.39-.086.694-.26.91-.564.13.13.087.304-.043.434-.824.91-1.908 1.735-3.036 2.559-.607.26-1.084.26-1.214-.217-.434-1.344-.39-2.862-.217-4.38.65-.694 1.171-1.388 1.431-2.039.087-.216.13-.39 0-.607-.13-.26-.477-.39-.607-.173-.087.217-.043.39.087.39 0-.173.13-.39.26-.173.087.216.043.39-.043.563-.26.564-.607.781-.694.52.043-1.3-.087-2.428-.65-3.512-.565-.78-1.432-1.388-2.3-1.431-.39 0-.737.173-.954.52-.043.477.304.824.738.91-.26-.303-.39-.563-.26-.823.346-.26.78-.26 1.214-.087 1.04.477 1.561 1.431 1.691 2.472.13 1.258.217 2.516-.347 3.6-.65-.52-1.648-1.778-1.691-2.038.043-.52.347-.39.564-.304.087.13 0 .26-.217.434.434.043.52-.13.477-.39-.087-.348-.39-.478-.867-.304-.304.13-.304.91.086 1.344l1.518 1.735c-.347 2.646.434 4.293.26 6.332-.346-.217-.563-.867-.997-1.04a1.482 1.482 0 00-1.214 0c-.26.13-.26.433-.217.736.13.477.607.477.824.087-.434.087-.607-.173-.52-.39.216-.26.477-.347.823-.26.347.13.694.607.998 1.17a6.05 6.05 0 00.173 2.212c.347 1.041.65 2.082.911 3.123 0-.043-.043-.043-.043-.087-.78-.824-1.128-1.17-2.039-1.691-.303-.174-1.17-.998-1.517-1.258a.329.329 0 00-.174-.087l.087.044c-.044-.477 0-.65.217-.738.173-.043.303.044.433.347.044.13.044.26-.173.304.347.217.564-.043.52-.304-.087-.433-.26-.563-.52-.694-.304-.086-.477-.043-.738.217a.874.874 0 00-.086.738c-.78-.347-1.518-.52-2.516-.52h-.26c-.694-1.389-1.17-2.69-1.17-3.817.043-1.779.476-2.776 1.474-3.557.26-.216.477-.347.78-.347.347.26.26.477-.216.65.607.391.91-.042.78-.52-.087-.347-.217-.433-.477-.52-.65-.13-1.388.173-1.908 1.171-.13-.824.954-3.08.824-4.38-.087-1.171-.607-1.778-1.778-1.475-.781.347-1.085.868-.824 1.561.26.39.867.217.91-.26-.26.174-.694.304-.694-.087 0-.346.13-.39.348-.65.607-.477 1.387-.217 1.43.954 0 1.475-.693 2.95-.997 4.38-.607-.086-1.258-.13-1.735-.52-.607-.65-.91-1.128-.824-1.388.087-.303.39-.52.607-.39.174.087.087.39.13.607.26-.13.391-.347.304-.607-.173-.434-.347-.564-.737-.39-.347.13-.564.39-.65.823 0 .434.13.824.477 1.258l.563.564c-.433.26-.607.564-.563 1.171.043.39.216.65.65.607.304-.087.434-.173.304-.477-.13.174-.434.26-.52.217-.391-.434.042-.91.346-1.084.26-.174.954.086 1.518.13a29.36 29.36 0 00-.26 2.602c-.304-.13-.52-.174-.824-.087a.586.586 0 00-.26.824c.216.39.607.434.824.044-.174.086-.347.086-.477-.087-.087-.217 0-.39.13-.477.13-.087.347-.043.563.087.044.607.13 1.257.39 1.864.348.694.781 1.258 1.258 1.649-1.344 0-2.645-.044-3.86-.434-1.17-.52-1.734-.954-1.69-1.518.13-.694.433-.824.78-.867.607 0 .65.39.13.607.347.13.694-.044.694-.304-.043-.434-.304-.65-.824-.65-.39 0-.737.26-1.128.216a5.564 5.564 0 01-2.212-.737c-.607-.65-1.084-1.388-1.17-2.168 0-.347.26-.781.607-.781.563.043.607.347.347.867.216-.043.347-.086.477-.173 0 .13 0 .217.043.347.39 1.431 1.475 1.995 2.385 1.908 1.215-.13 1.735-.737 1.779-2.212.043-1.214-.348-1.778-1.041-1.821-.52 0-.824.52-1.215.39-1.084-.173-1.691.13-1.865.824-.13-.347-.39-.607-.824-.564-.824 0-1.127.52-1.084 1.301.043.564.477 1.605.91 2.256-.476.13-.953.477-1.083 1.084-.13.737 0 1.17.563 1.214.434-.043.608-.303.478-.78-.087.303-.217.39-.348.39-.433-.044-.433-.52-.13-.868.217-.303.564-.39 1.041-.303.694.087 1.518.564 2.255.824 0 .824.348 1.518 1.388 2.038 1.388.52 2.95.65 4.38.65-.78.391-1.387.868-1.474 1.605-.087.651.39 1.345.998 1.128.477-.173.563-.564.173-.824-.087.217-.173.304-.303.304-.434-.044-.651-.694.086-1.171a4.309 4.309 0 012.039-.65c1.127.043 2.168.476 3.079 1.3 1.17 1.041 2.472 3.21 3.296 4.728 0-.087 0-.217.043-.304.217 1.344.347 2.646.434 3.99-.694-.174-1.431-.564-2.082-1.084-.433-.607-.694-1.258-.694-1.952a.657.657 0 01.65-.564c.174.044.435.087.521.217a.46.46 0 01.044.347c-.087.217-.174.217-.477.347.26.043.65 0 .737-.303.043-.26.087-.478-.13-.738a.959.959 0 00-.824-.26.98.98 0 00-.868.694c-.13.477-.043.954.13 1.431.174.477.694 1.041.781 1.388-.347.087-.78.173-.997.607a1.774 1.774 0 00-.174 1.041c.13.434.39.564.694.564.347 0 .477-.434.434-.78-.174.13-.26.476-.477.433-.217-.087-.304-.217-.26-.434.13-.564.39-.737.91-.824.52-.043 1.518.434 2.212.824.044 2.082.39 11.58-3.643 9.238-.607-.564-1.214-1.518-1.561-2.299.217-.563.65-1.084 1.214-1.518.434-.26.954-.26 1.431-.26.39 0 .868.39.781.78a.452.452 0 01-.434.304c-.217 0-.303-.13-.347-.433-.13.26-.086.477.087.65a.78.78 0 00.694.087c.26-.173.39-.39.39-.694 0-.303-.216-.564-.477-.78-.39-.218-.78-.26-1.127-.218-.39.044-.694.26-1.085.304-.043-.347-.173-.607-.347-.867-.26-.39-.694-.477-1.127-.304-.304.26-.174.867.217.824-.044-.13-.13-.303-.044-.39.13-.174.304-.174.477-.043.26.13.39.346.347.607-.173.65-.52.997-.867 1.3l-.434-1.604-.217-2.385-.607-1.084.347.607-.347-1.085c-.217-.433-.217-1.257.044-1.3.39-.087.867.13.867.39 0 .216-.174.347-.477.433.303.13.694.174.824-.13.087-.303.087-.78-.174-1.04-.26-.304-.563-.348-.867-.304a7.252 7.252 0 00.65-2.082c.087-1.04-.086-2.125-.433-2.559-.217-.26-.434-.737-.347-.997.173-.304.347-.174.694.086-.087-.433-.26-.65-.65-.607-.26 0-.434.217-.478.607-.043.26.087.52.044.738-.39-.087-.781.217-.824.52-.044.694.52.824.65.347-.087-.087-.26-.043-.26-.217-.043-.217.13-.347.694-.303.217.086.39.477.52 1.17.087.911-.13 1.822-.477 2.69l-.737 1.821c-.477-.867-1.214-1.431-1.865-1.691-.997-.998-1.995-1.822-3.08-2.386-.606-.303-1.994-1.3-2.124-1.734-.044-.217-.044-.478.216-.694.174-.174.52 0 .651.216.087.13-.087.217-.13.348.347-.044.564-.13.477-.39-.087-.304-.304-.565-.737-.695.13-.173.303-.26.433-.434 0 .174.044.39.174.608.737-.217.78-.694.434-1.345-.217.087-.347.217-.434.304.087-.39 0-.78-.39-1.084-.347-.217-.824-.13-.998.26-.087.39.13.824.52.737-.173-.303-.216-.564 0-.78.348-.087.608.433.478.737-.174.433-1.085 1.04-1.215 1.518-.087.824.564 1.127.824 1.735-.824-.26-1.604-.695-2.298-1.172-.65-.433-1.345-1.17-2.126-2.255-.39-.52-.477-1.388-.216-1.778.347-.434.694-.564.997-.39.304.173.477.52.477 1.04.347-.303.39-.65 0-1.084-.347-.26-.824-.433-1.258-.303-.91.433-.607 1.344-1.04 1.431-.694.217-1.388.217-2.125.043-.911-.216-1.432-.91-1.779-1.43-.216-.348-.216-.651.26-.998a.59.59 0 01.651 0c.217.216.13.39-.173.607.39 0 .607-.087.607-.39-.217-.608-.607-.825-1.041-.738-.737.217-.998.694-.824 1.518.217.738.867 1.345 1.691 1.865a1.51 1.51 0 00-.607 1.04c-1.388-.216-2.168.261-2.385 2.647 1.214-.13 2.038-.781 2.429-2.039 0 .044.043.044.043.087.39.607.607.52.954.477.434-.13.564-.52.26-.824-.13.39-.303.477-.52.39-.304-.13-.26-.477-.13-.78.173-.39.433-.608.867-.651.477.043 1.214-.087 2.169.087a7.538 7.538 0 002.298 2.645c1.431.998 2.82 1.735 4.164 2.125.824.347 1.604.868 2.385 1.562l-.65-.13c-.478-.087-.955.13-1.432.303-.737.174-1.821.607-2.472.26-.39-.303-.347-.563-.13-.737.217-.217.434-.043.477.217.26-.26.13-.477-.173-.65-.39 0-.694.173-.824.693-.13.564.26.824.824.998a4.37 4.37 0 002.125-.26c.086.477.39.954.867 1.387.26.217.868.26.998-.13.13-.433-.087-.694-.39-.78-.218-.044-.39.13-.26.39.086-.347.346 0 .433.13.087.26-.434.39-.737 0-.304-.39-.347-.78-.304-.954.043-.347.434-.434.78-.39.825.043 1.389.477 1.952 1.17-.173.825-1.257 2.256-2.385 2.82-.564.13-1.214.173-2.082.087-1.04-.174-1.605-.39-1.778-.738-.173-.347-.217-.694.087-.737.347 0 .347.217.303.564.26-.217.39-.39.304-.607-.13-.217-.304-.347-.52-.347-.564.086-.694.433-.608.91l-1.951-1.127c-.217-.174-.26-.39-.174-.607.13-.26.26.043.304.26.217-.347.217-.607-.174-.694-.303-.043-.52.217-.607.52-.65-.043-1.127-.043-1.778-.13a8.35 8.35 0 00-1.475 0c-.563.087-1.17.044-1.691-.043-1.084-.217-1.778-1.258-1.691-1.778.086-.434.303-.824.867-.998-.694-.26-1.258.087-1.431.91-.087.521.303 1.128 1.127 1.78 1.128.736 2.56.953 4.207.78-.564.26-.694.52-.65 1.04.043.304.173.608.65.608.26-.044.304-.434.174-.694-.13.303-.304.39-.477.217-.174-.304.173-.477.52-.738.607-.346.954-.39 1.431-.26.954.304 1.865 1.258 2.863 2.342-.824-.087-1.778-.13-2.255 0-.39.13-.651.434-1.041.347-.477-.217-.694-.39-.564-.564.217-.26.477-.173.78.13.044-.39-.173-.607-.65-.607-.39.044-.564.26-.607.607 0 .26.217.434.52.564-.694.347-1.388.694-1.995 1.258-.347.217-1.474.043-2.775-1.214-.434-.694-.564-1.258-.347-1.518.26-.26.563-.304.824-.044.13.217 0 .39-.26.608.216 0 .476-.044.607-.26.086-.304.086-.565-.13-.738-.13-.174-.738-.304-1.128-.087-.304.217-.39.65-.39.998 0 .564.477 1.344.78 1.778-.347.087-.65.26-.867.564-.217.216-.26 1.04.086 1.17.478.13.868-.043.825-.476-.217.13-.651.347-.651 0-.043-.217.087-.477.347-.608.347-.13.737-.13 1.084 0 .347.13.78.39 1.128.434l-1.605 1.561c-.434.477-.954.738-1.648.781-.607 0-.954-.303-1.04-.65-.044-.434.13-.694.52-.781.216-.044.216.217.347.303.13-.433.043-.693-.304-.737-.39-.087-.78.217-.91.737-.088.434-.088.738.173.998.39.477.867.65 1.43.65a2.728 2.728 0 001.432-.52l2.255-1.951c-.173.693-.086 1.344.347 1.821.477.477.998.39 1.171.087.174-.304 0-.738-.477-.824.044.216.217.52.044.563-.39.13-.564-.086-.564-.607.043-.52.173-1.04.433-1.474.738-.868 1.518-1.431 2.256-1.345-.998.564-1.215 1.171-1.041 1.779.217.52.564.78.997.91.477.13.998.087 1.215-.217.173-.303.043-.737-.26-.824-.217-.043-.39 0-.521.217.347.044.477.217.477.434s-.217.217-.694.043c-.39-.173-.607-.39-.694-.694 0-.477.39-.867.954-1.127.868-.347 1.388-.477 2.56-.39.867.043 1.69-.26 2.558-.39h.173c.13.26.217.606.174.997-.043.563-.13 1.04-.39 1.43-.174.304-.434.565-.868.651-.26.044-.477-.173-.477-.477.044-.217.26-.26.564-.13 0-.26-.13-.39-.347-.433-.39 0-.607.216-.564.693 0 .347.26.564.65.65.608 0 .955-.173 1.258-.563.217-.26.434-.607.608-.91.26.303.65.476 1.04.476.39-.043.608-.216.651-.477.043-.39-.13-.607-.39-.65-.217-.044-.304.043-.304.26.174-.043.304.043.347.26 0 .174-.087.26-.477.217-.434-.087-.694-.26-.737-.477l-.044-1.605c.478-.086.911-.26 1.302-.52l.216.087c.087.433.26.694.564.824.347.086.607-.044.694-.304.13-.39.043-.65-.26-.737.087.173.173.607.043.65-.13.044-.26.087-.39.087-.26-.087-.347-.477-.217-.737.737-.998 1.388-1.605 2.038-1.952.39-.173.824.39 1.302 1.605l.216 2.472-1.127-.347c-.477-.304-.824-.737-.954-1.301-.13-.65-.044-1.084.52-1.084.217-.044.347.043.434.303.043.26-.174.39-.39.39.173.13.346.13.563 0 .087-.216.174-.477.087-.693-.26-.39-.477-.52-.824-.477-.347.043-.564.303-.694.607-.13.564 0 1.04.087 1.474.13.347.433.608.52.868 0 .216-.78.303-.91.867-.087.347 0 .694.26.91a.59.59 0 00.65 0c.13-.216.13-.346-.043-.476-.044.173-.13.303-.217.303-.174.044-.304-.043-.39-.303-.044-.347.173-.477.39-.607.304-.13.694-.087 1.258.086.39.087.694.26.954.564a9.227 9.227 0 001.518 3.6c-.087.13-.13.303-.174.52-.607.304-1.214.477-1.908.434-.52 0-1.084-.087-1.605-.304-.78-.303-1.17-.607-1.43-1.04-.304-.477-.131-1.128.563-1.518-.737.043-1.04.39-1.084 1.3.043.521.65 1.128 1.474 1.692-.433.564-1.648.65-2.515.434l-1.431-.39c-.13-.044-.26-.044-.39-.044.39-.434.476-.867.086-1.344-.39.477-.434.91-.173 1.388-.13 0-.26.043-.347.086-.304.13-.39.564-.217.694.217.174.434.217.607-.043-.13 0-.347-.044-.347-.174-.043-.26.13-.347.434-.347.65 0 .867.217.78.564-.347.65-.997.998-1.561 1.171-.607.087-1.171 0-1.821.044-.868-.044-1.735-.304-2.56-1.172-.433-.303-.997-1.17-1.04-1.517-.044-.347.087-.52.347-.608.433-.086.39.304.347.608.39-.304.52-.564.303-.738-.433-.26-.824-.347-1.214.044-.26.347-.13.867.217 1.474L9.585 40.6c-.911-.78-1.735-1.17-2.429-.997-.564.26-.78.694-.694 1.214.087.52.434.824.954.867.39 0 .39-.26 0-.78 0 .39-.087.564-.347.347-.26-.174-.303-.347-.26-.608 0-.216.13-.347.304-.477a.981.981 0 01.78.044c.52.217.954.52 1.301.867.564.607 1.128 1.041 1.692 1.431l1.691 1.171c-.26.217-.173.477-.086.694.173.304.39.434.607.347.26-.087.347-.434.216-.65-.173.303-.563.39-.563.173 0-.217.086-.303.303-.39.39-.044.824.087 1.171.173.347.13.998-.087 1.128.13l-.91.781a1.646 1.646 0 00-.521.737c-.044.347.086.65.477.781.217.043.39-.043.477-.304-.347 0-.824 0-.607-.433.347-.477.694-.868 1.214-1.215l1.301-.867 1.388-.607c-.217.39-.39.694-.564 1.084-.26.477-.173.997.13 1.344.347.434.911.564 1.475.564-.65-.217-1.258-.78-1.345-1.3 0-.434.217-.868.608-1.302.433-.607 1.17-1.127 1.864-1.214l1.518-.39c.477.086 1.041.086 1.301.346-.086.824-.303 1.345-.563 1.779-.39.91-.824 1.734-1.215 1.864-.39.087-.173-.39-.173-.65-.217.087-.347.607-.217.737.13.13.26.217.564.13.477-.13 1.3-1.518 1.518-2.342 0 .65.043.955.39 1.431.217.26.564.26.824-.13.043-.043 0-.173-.043-.26.564-.043.78-.26.78-.867-.52 0-.694.347-.78.824-.087-.13-.174-.217-.26-.217.173.26.173.477 0 .564-.26-.044-.434-.174-.521-.607-.087-.65.087-1.258.434-1.865.217-.347.997-1.171 1.43-.998.131.044.261.044.391.174 1.388 1.344 3.643 2.168 3.383 4.25-.217 2.038-1.258 2.342-.65 4.857.433 1.865 1.127 3.643 1.127 4.901.044 2.95-8.24 4.12-11.796 4.424l-4.554.39c-.13 0-.39.044-.737.044H0v3.122h63.06v-3.123H48.097v.044zm-22.682-20.08c-.044-.087-.044-.174-.044-.217l.087.13v.087h-.043z" fill="#fff"/><path stroke="#fff" d="M72.5 0v64"/></svg>