<svg xmlns="http://www.w3.org/2000/svg" width="15" height="11" viewBox="0 0 15 11"><g><g><path fill="#ff6500" d="M14.89 5.097a.541.541 0 0 1-.431.214H13.09a.541.541 0 0 1-.541-.54v-.913a6.65 6.65 0 0 0-.985-.359c-.384-.11-.904-.23-1.566-.325a.902.902 0 0 1 .173.197l3.286 5.1a.902.902 0 0 1 .143.489v1.221a.902.902 0 0 1-.902.902H2.302a.902.902 0 0 1-.902-.902V8.96c0-.173.05-.343.143-.489l3.286-5.1A.901.901 0 0 1 5 3.174a11.61 11.61 0 0 0-1.567.325 6.66 6.66 0 0 0-.985.36v.911a.541.541 0 0 1-.54.541H.54a.541.541 0 0 1-.52-.687c.358-1.278 1.28-2.457 2.595-3.32C4.005.392 5.694-.09 7.5-.09c3.625 0 6.7 1.938 7.48 4.714a.541.541 0 0 1-.09.473zM4.794 7.115A2.709 2.709 0 0 0 7.5 9.821a2.709 2.709 0 0 0 2.706-2.706A2.709 2.709 0 0 0 7.5 4.41a2.709 2.709 0 0 0-2.706 2.706z"/></g></g></svg>