<svg width="16" height="16" viewBox="0 0 16 16" fill="none" xmlns="http://www.w3.org/2000/svg">
<path d="M16 12.2385L15.9357 12.3011C13.8195 14.3647 11.0006 15.5017 8 15.5017C4.99895 15.5017 2.18053 14.3651 0.0638333 12.3011L0 12.2385L0.0150717 12.1581C0.423782 9.9915 1.81659 8.25108 3.93683 7.25639L4.08755 7.18578L4.20768 7.2881C5.20906 8.14192 6.55577 8.6117 7.99956 8.6117C9.44334 8.6117 10.79 8.14156 11.7914 7.2881L11.9116 7.18578L12.0623 7.25639C14.1825 8.25108 15.5753 9.9915 15.9845 12.1581L16 12.2385ZM8 7.74167C10.626 7.74167 12.7627 6.00521 12.7627 3.87101C12.7627 1.73682 10.626 0 8 0C5.37397 0 3.23732 1.73682 3.23732 3.87065C3.23732 6.00449 5.37397 7.74167 8 7.74167Z" fill="#C8AE99"/>
</svg>
